<?xml version='1.0' encoding='UTF-8' standalone='no'?>
<!-- Created with Fritzing (http://www.fritzing.org/) -->
<svg xmlns="http://www.w3.org/2000/svg" width="1.9685in" version="1.2" height="2.08661in" x="0in" y="0in"  baseProfile="tiny" xmlns:svg="http://www.w3.org/2000/svg" viewBox="0 0 141.732 150.236">
 <g partID="854296690">
  <g id="board" >
   <rect stroke="black" width="141.156" fill="none" id="boardoutline" height="149.66" x="0.288" stroke-width="0.5" y="0.288"  fill-opacity="0.5"/>
  </g>
 </g>
 <g partID="854174001">
  <g transform="translate(12.2453,49.9838)">
   <g transform="matrix(1, 0, 0, 1, 0, -345.6)">
    <g id="copper1">
     <g>
      <g id="copper0">
       <g transform="matrix(0.75, 0, 0, 0.75, 0.9, 274.5)">
        <path style="stroke-miterlimit:4;stroke-dasharray:none;display:inline" stroke-opacity="1" stroke="black" d="m49.68,104.4a2.88,2.88,0,1,1,-5.76,0,2.88,2.88,0,1,1,5.76,0z" fill="none" id="connector5pin" stroke-width="1.92"/>
       </g>
       <g transform="matrix(0.75, 0, 0, 0.75, -6.3, 274.5)">
        <path style="stroke-miterlimit:4;stroke-dasharray:none;display:inline" stroke-opacity="1" stroke="black" d="m49.68,104.4a2.88,2.88,0,1,1,-5.76,0,2.88,2.88,0,1,1,5.76,0z" fill="none" id="connector4pin" stroke-width="1.92"/>
       </g>
       <g transform="matrix(0.75, 0, 0, 0.75, -13.5, 274.5)">
        <path style="stroke-miterlimit:4;stroke-dasharray:none;display:inline" stroke-opacity="1" stroke="black" d="m49.68,104.4a2.88,2.88,0,1,1,-5.76,0,2.88,2.88,0,1,1,5.76,0z" fill="none" id="connector3pin" stroke-width="1.92"/>
       </g>
       <g transform="matrix(0.75, 0, 0, 0.75, -20.7, 274.5)">
        <path style="stroke-miterlimit:4;stroke-dasharray:none;display:inline" stroke-opacity="1" stroke="black" d="m49.68,104.4a2.88,2.88,0,1,1,-5.76,0,2.88,2.88,0,1,1,5.76,0z" fill="none" id="connector2pin" stroke-width="1.92"/>
       </g>
       <g transform="matrix(0.75, 0, 0, 0.75, -27.9, 274.5)">
        <path style="stroke-miterlimit:4;stroke-dasharray:none;display:inline" stroke-opacity="1" stroke="black" d="m49.68,104.4a2.88,2.88,0,1,1,-5.76,0,2.88,2.88,0,1,1,5.76,0z" fill="none" id="connector1pin" stroke-width="1.92"/>
       </g>
       <g transform="matrix(0.75, 0, 0, 0.75, 15.3, 274.5)">
        <path style="stroke-miterlimit:4;stroke-dasharray:none;display:inline" stroke-opacity="1" stroke="black" d="m49.68,104.4a2.88,2.88,0,1,1,-5.76,0,2.88,2.88,0,1,1,5.76,0z" fill="none" id="connector7pin" stroke-width="1.92"/>
       </g>
       <g transform="matrix(0.75, 0, 0, 0.75, 8.1, 274.5)">
        <path style="stroke-miterlimit:4;stroke-dasharray:none;display:inline" stroke-opacity="1" stroke="black" d="m49.68,104.4a2.88,2.88,0,1,1,-5.76,0,2.88,2.88,0,1,1,5.76,0z" fill="none" id="connector6pin" stroke-width="1.92"/>
       </g>
       <g transform="matrix(0.75, 0, 0, 0.75, 29.7, 274.5)">
        <path style="stroke-miterlimit:4;stroke-dasharray:none;display:inline" stroke-opacity="1" stroke="black" d="m49.68,104.4a2.88,2.88,0,1,1,-5.76,0,2.88,2.88,0,1,1,5.76,0z" fill="none" id="connector9pin" stroke-width="1.92"/>
       </g>
       <g transform="matrix(0.75, 0, 0, 0.75, 22.5, 274.5)">
        <path style="stroke-miterlimit:4;stroke-dasharray:none;display:inline" stroke-opacity="1" stroke="black" d="m49.68,104.4a2.88,2.88,0,1,1,-5.76,0,2.88,2.88,0,1,1,5.76,0z" fill="none" id="connector8pin" stroke-width="1.92"/>
       </g>
       <g transform="matrix(0.75, 0, 0, 0.75, 36.9, 274.5)">
        <path style="stroke-miterlimit:4;stroke-dasharray:none;display:inline" stroke-opacity="1" stroke="black" d="m49.68,104.4a2.88,2.88,0,1,1,-5.76,0,2.88,2.88,0,1,1,5.76,0z" fill="none" id="connector10pin" stroke-width="1.92"/>
       </g>
      </g>
     </g>
    </g>
   </g>
  </g>
 </g>
 <g partID="57491">
  <g transform="translate(125.285,119.824)">
   <g transform="matrix(-1,0,0,-1,0,0)">
    <g id="copper1" >
     <g id="copper0" >
      <rect stroke="black" width="4.176" fill="none" id="square" height="4.176" x="2.952" stroke-width="1.44" y="2.952" />
      <circle r="2.088" stroke="black" fill="none" id="connector0pin" stroke-width="1.44"  cx="5.04" cy="5.04"/>
      <circle r="2.088" stroke="black" fill="none" id="connector1pin" stroke-width="1.44"  cx="5.04" cy="12.24"/>
     </g>
    </g>
   </g>
  </g>
 </g>
 <g partID="854221221">
  <g transform="translate(14.4053,102.544)">
   <g id="copper1" >
    <g id="copper0" >
     <rect stroke="black" width="4.176" fill="none" id="square" height="4.176" x="2.952" stroke-width="1.44" y="2.952" />
     <circle r="2.088" stroke="black" fill="none" id="connector0pin" stroke-width="1.44"  cx="5.04" cy="5.04"/>
     <circle r="2.088" stroke="black" fill="none" id="connector1pin" stroke-width="1.44"  cx="5.04" cy="12.24"/>
    </g>
   </g>
  </g>
 </g>
 <g partID="57551">
  <g transform="translate(115.205,66.5438)">
   <g id="copper1" >
    <g id="copper0" >
     <rect stroke="black" width="4.176" fill="none" id="square" height="4.176" x="2.952" stroke-width="1.44" y="2.952" />
     <circle r="2.088" stroke="black" fill="none" id="connector0pin" stroke-width="1.44"  cx="5.04" cy="5.04"/>
     <circle r="2.088" stroke="black" fill="none" id="connector1pin" stroke-width="1.44"  cx="5.04" cy="12.24"/>
    </g>
   </g>
  </g>
 </g>
 <g partID="57581">
  <g transform="translate(14.4053,66.5438)">
   <g id="copper1" >
    <g id="copper0" >
     <rect stroke="black" width="4.176" fill="none" id="square" height="4.176" x="2.952" stroke-width="1.44" y="2.952" />
     <circle r="2.088" stroke="black" fill="none" id="connector0pin" stroke-width="1.44"  cx="5.04" cy="5.04"/>
     <circle r="2.088" stroke="black" fill="none" id="connector1pin" stroke-width="1.44"  cx="5.04" cy="12.24"/>
    </g>
   </g>
  </g>
 </g>
 <g partID="854197971">
  <g transform="translate(31.1453,104.488)">
   <g id="copper1" >
    <!-- <rect width="55" x="10" y="15.5" fill="none" height="55" stroke="rgb(255, 191, 0)" stroke-width="20" />  -->
    <circle r="1.98" stroke="black" fill="none" id="connector0pin" stroke-width="1.44"  cx="2.7" cy="3.096"/>
    <circle r="1.98" stroke="black" fill="none" id="connector1pin" stroke-width="1.44"  cx="31.5" cy="3.096"/>
   </g>
  </g>
 </g>
 <g partID="57721">
  <g transform="translate(31.1453,68.4878)">
   <g id="copper1" >
    <!-- <rect width="55" x="10" y="15.5" fill="none" height="55" stroke="rgb(255, 191, 0)" stroke-width="20" />  -->
    <circle r="1.98" stroke="black" fill="none" id="connector0pin" stroke-width="1.44"  cx="2.7" cy="3.096"/>
    <circle r="1.98" stroke="black" fill="none" id="connector1pin" stroke-width="1.44"  cx="31.5" cy="3.096"/>
   </g>
  </g>
 </g>
 <g partID="57671">
  <g transform="translate(101.345,74.6798)">
   <g transform="matrix(-1,0,0,-1,0,0)">
    <g id="copper1" >
     <!-- <rect width="55" x="10" y="15.5" fill="none" height="55" stroke="rgb(255, 191, 0)" stroke-width="20" />  -->
     <circle r="1.98" stroke="black" fill="none" id="connector0pin" stroke-width="1.44"  cx="2.7" cy="3.096"/>
     <circle r="1.98" stroke="black" fill="none" id="connector1pin" stroke-width="1.44"  cx="31.5" cy="3.096"/>
    </g>
   </g>
  </g>
 </g>
 <g partID="57641">
  <g transform="translate(86.9453,125.08)">
   <g transform="matrix(-1,0,0,-1,0,0)">
    <g id="copper1" >
     <!-- <rect width="55" x="10" y="15.5" fill="none" height="55" stroke="rgb(255, 191, 0)" stroke-width="20" />  -->
     <circle r="1.98" stroke="black" fill="none" id="connector0pin" stroke-width="1.44"  cx="2.7" cy="3.096"/>
     <circle r="1.98" stroke="black" fill="none" id="connector1pin" stroke-width="1.44"  cx="31.5" cy="3.096"/>
    </g>
   </g>
  </g>
 </g>
 <g partID="58201">
  <g transform="translate(-45.5399,-0.416226)">
   <g id="copper1" >
    <g id="copper0" >
     <circle r="1.883" stroke="black" fill="none" id="connector1pad" stroke-width="1"  cx="151.384" cy="144"/>
     <circle r="1.883" stroke="black" fill="none" id="connector2pad" stroke-width="1"  cx="158.583" cy="144"/>
     <circle r="1.883" stroke="black" fill="none" id="connector3pad" stroke-width="1"  cx="165.786" cy="144"/>
     <circle r="1.883" stroke="black" fill="none" id="connector4pad" stroke-width="1"  cx="172.985" cy="144"/>
     <circle r="1.883" stroke="black" fill="none" id="connector5pad" stroke-width="1"  cx="180.185" cy="144"/>
     <circle r="1.884" stroke="black" fill="none" id="connector51pad" stroke-width="1"  cx="118.263" cy="7.2"/>
     <circle r="1.884" stroke="black" fill="none" id="connector52pad" stroke-width="1"  cx="111.065" cy="7.2"/>
     <circle r="1.884" stroke="black" fill="none" id="connector53pad" stroke-width="1"  cx="103.864" cy="7.2"/>
     <circle r="1.884" stroke="black" fill="none" id="connector54pad" stroke-width="1"  cx="96.664" cy="7.2"/>
     <circle r="1.884" stroke="black" fill="none" id="connector55pad" stroke-width="1"  cx="89.464" cy="7.2"/>
     <circle r="1.884" stroke="black" fill="none" id="connector56pad" stroke-width="1"  cx="82.264" cy="7.2"/>
     <circle r="1.884" stroke="black" fill="none" id="connector57pad" stroke-width="1"  cx="75.064" cy="7.2"/>
     <circle r="1.884" stroke="black" fill="none" id="connector58pad" stroke-width="1"  cx="67.864" cy="7.2"/>
     <circle r="1.884" stroke="black" fill="none" id="connector59pad" stroke-width="1"  cx="60.664" cy="7.2"/>
     <circle r="1.884" stroke="black" fill="none" id="connector60pad" stroke-width="1"  cx="53.463" cy="7.2"/>
     <circle r="1.884" stroke="black" fill="none" id="connector61pad" stroke-width="1"  cx="180.185" cy="7.2"/>
     <circle r="1.884" stroke="black" fill="none" id="connector62pad" stroke-width="1"  cx="172.985" cy="7.2"/>
     <circle r="1.884" stroke="black" fill="none" id="connector63pad" stroke-width="1"  cx="165.786" cy="7.2"/>
     <circle r="1.884" stroke="black" fill="none" id="connector64pad" stroke-width="1"  cx="158.583" cy="7.2"/>
     <circle r="1.884" stroke="black" fill="none" id="connector65pad" stroke-width="1"  cx="151.384" cy="7.2"/>
     <circle r="1.884" stroke="black" fill="none" id="connector66pad" stroke-width="1"  cx="144.185" cy="7.2"/>
     <circle r="1.884" stroke="black" fill="none" id="connector67pad" stroke-width="1"  cx="136.985" cy="7.2"/>
     <circle r="1.884" stroke="black" fill="none" id="connector68pad" stroke-width="1"  cx="129.784" cy="7.2"/>
     <circle r="1.883" stroke="black" fill="none" id="connector84pad" stroke-width="1"  cx="86.584" cy="144"/>
     <circle r="1.883" stroke="black" fill="none" id="connector91pin" stroke-width="1"  cx="79.384" cy="144"/>
     <circle r="1.883" stroke="black" fill="none" id="connector85pad" stroke-width="1"  cx="93.784" cy="144"/>
     <circle r="1.883" stroke="black" fill="none" id="connector86pad" stroke-width="1"  cx="100.985" cy="144"/>
     <circle r="1.883" stroke="black" fill="none" id="connector87pad" stroke-width="1"  cx="108.185" cy="144"/>
     <circle r="1.883" stroke="black" fill="none" id="connector88pad" stroke-width="1"  cx="115.384" cy="144"/>
     <circle r="1.883" stroke="black" fill="none" id="connector89pad" stroke-width="1"  cx="122.583" cy="144"/>
     <circle r="1.883" stroke="black" fill="none" id="connector90pad" stroke-width="1"  cx="129.784" cy="144"/>
     <circle r="1.883" stroke="black" fill="none" id="connector0pad" stroke-width="1"  cx="144.185" cy="144"/>
    </g>
   </g>
  </g>
 </g>
 <g partID="854296740">
  <line stroke-linecap="round" stroke="black" stroke-width="1.728" y1="114.771" y2="73.6436" x1="69.8453" x2="69.8453"/>
 </g>
 <g partID="854296710">
  <line stroke-linecap="round" stroke="black" stroke-width="1.728" y1="64.2941" y2="64.3862" x1="62.5556" x2="12.2053"/>
 </g>
 <g partID="854296610">
  <line stroke-linecap="round" stroke="black" stroke-width="1.728" y1="121.58" y2="115.209" x1="86.2653" x2="118.119"/>
 </g>
 <g partID="854296580">
  <line stroke-linecap="round" stroke="black" stroke-width="1.728" y1="107.647" y2="107.594" x1="134.61" x2="122.413"/>
 </g>
 <g partID="854296550">
  <line stroke-linecap="round" stroke="black" stroke-width="1.728" y1="129.283" y2="107.647" x1="134.673" x2="134.61"/>
 </g>
 <g partID="854296520">
  <line stroke-linecap="round" stroke="black" stroke-width="1.728" y1="129.283" y2="129.283" x1="62.7005" x2="134.673"/>
 </g>
 <g partID="854296500">
  <line stroke-linecap="round" stroke="black" stroke-width="1.728" y1="141.401" y2="129.283" x1="62.6537" x2="62.7005"/>
 </g>
 <g partID="854296450">
  <line stroke-linecap="round" stroke="black" stroke-width="1.728" y1="64.3862" y2="13.9808" x1="12.2053" x2="12.2197"/>
 </g>
 <g partID="854296420">
  <line stroke-linecap="round" stroke="black" stroke-width="1.728" y1="13.9808" y2="14.0051" x1="12.2197" x2="19.405"/>
 </g>
 <g partID="854296390">
  <line stroke-linecap="round" stroke="black" stroke-width="1.728" y1="14.0051" y2="8.05246" x1="19.405" x2="27.7464"/>
 </g>
 <g partID="854296320">
  <line stroke-linecap="round" stroke="black" stroke-width="1.728" y1="69.5239" y2="64.2941" x1="62.62" x2="62.5556"/>
 </g>
 <g partID="854296340">
  <line stroke-linecap="round" stroke="black" stroke-width="1.728" y1="13.9651" y2="6.78377" x1="23.1616" x2="29.5242"/>
 </g>
 <g partID="854296230">
  <line stroke-linecap="round" stroke="black" stroke-width="1.728" y1="42.8439" y2="42.8439" x1="117.368" x2="48.2986"/>
 </g>
 <g partID="854296200">
  <line stroke-linecap="round" stroke="black" stroke-width="1.728" y1="42.8439" y2="54.9438" x1="48.2981" x2="48.2531"/>
 </g>
 <g partID="854296130">
  <line stroke-linecap="round" stroke="black" stroke-width="1.728" y1="8.96085" y2="42.8439" x1="120.072" x2="117.368"/>
 </g>
 <g partID="854294990">
  <line stroke-linecap="round" stroke="black" stroke-width="1.728" y1="121.061" y2="114.771" x1="57.2872" x2="69.8453"/>
 </g>
 <g partID="854294910">
  <line stroke-linecap="round" stroke="black" stroke-width="1.728" y1="71.5838" y2="71.5838" x1="67.7853" x2="64.7053"/>
 </g>
 <g partID="854294810">
  <line stroke-linecap="round" stroke="black" stroke-width="1.728" y1="73.6438" y2="105.524" x1="62.6453" x2="62.6453"/>
 </g>
 <g partID="854295130">
  <line stroke-linecap="round" stroke="black" stroke-width="1.728" y1="64.3095" y2="64.3861" x1="77.1173" x2="69.7861"/>
 </g>
 <g partID="854295080">
  <line stroke-linecap="round" stroke="black" stroke-width="1.728" y1="59.4237" y2="64.3095" x1="77.0679" x2="77.1173"/>
 </g>
 <g partID="854295070">
  <line stroke-linecap="round" stroke="black" stroke-width="1.728" y1="64.3862" y2="69.5239" x1="69.7861" x2="69.8283"/>
 </g>
</svg>
