<?xml version='1.0' encoding='UTF-8' standalone='no'?>
<!-- Created with Fritzing (http://www.fritzing.org/) -->
<svg xmlns="http://www.w3.org/2000/svg" width="1.9685in" version="1.2" height="2.08661in" x="0in" y="0in"  baseProfile="tiny" xmlns:svg="http://www.w3.org/2000/svg" viewBox="0 0 141.732 150.236">
 <g partID="854296690">
  <g id="board" >
   <rect stroke="black" width="141.156" fill="none" id="boardoutline" height="149.66" x="0.288" stroke-width="0.5" y="0.288"  fill-opacity="0.5"/>
  </g>
 </g>
 <g partID="854174001">
  <g transform="translate(12.2453,49.9838)">
   <g transform="matrix(1, 0, 0, 1, 0, -345.6)">
    <g id="copper1">
     <g>
      <g id="copper0">
       <g transform="matrix(0.75, 0, 0, 0.75, 0.9, 274.5)">
        <path style="stroke-miterlimit:4;stroke-dasharray:none;display:inline" stroke-opacity="1" stroke="black" d="m49.68,104.4a2.88,2.88,0,1,1,-5.76,0,2.88,2.88,0,1,1,5.76,0z" fill="black" id="connector5pin" stroke-width="2.64"/>
       </g>
       <g transform="matrix(0.75, 0, 0, 0.75, -6.3, 274.5)">
        <path style="stroke-miterlimit:4;stroke-dasharray:none;display:inline" stroke-opacity="1" stroke="black" d="m49.68,104.4a2.88,2.88,0,1,1,-5.76,0,2.88,2.88,0,1,1,5.76,0z" fill="black" id="connector4pin" stroke-width="2.64"/>
       </g>
       <g transform="matrix(0.75, 0, 0, 0.75, -13.5, 274.5)">
        <path style="stroke-miterlimit:4;stroke-dasharray:none;display:inline" stroke-opacity="1" stroke="black" d="m49.68,104.4a2.88,2.88,0,1,1,-5.76,0,2.88,2.88,0,1,1,5.76,0z" fill="black" id="connector3pin" stroke-width="2.64"/>
       </g>
       <g transform="matrix(0.75, 0, 0, 0.75, -20.7, 274.5)">
        <path style="stroke-miterlimit:4;stroke-dasharray:none;display:inline" stroke-opacity="1" stroke="black" d="m49.68,104.4a2.88,2.88,0,1,1,-5.76,0,2.88,2.88,0,1,1,5.76,0z" fill="black" id="connector2pin" stroke-width="2.64"/>
       </g>
       <g transform="matrix(0.75, 0, 0, 0.75, -27.9, 274.5)">
        <path style="stroke-miterlimit:4;stroke-dasharray:none;display:inline" stroke-opacity="1" stroke="black" d="m49.68,104.4a2.88,2.88,0,1,1,-5.76,0,2.88,2.88,0,1,1,5.76,0z" fill="black" id="connector1pin" stroke-width="2.64"/>
       </g>
       <g transform="matrix(0.75, 0, 0, 0.75, 15.3, 274.5)">
        <path style="stroke-miterlimit:4;stroke-dasharray:none;display:inline" stroke-opacity="1" stroke="black" d="m49.68,104.4a2.88,2.88,0,1,1,-5.76,0,2.88,2.88,0,1,1,5.76,0z" fill="black" id="connector7pin" stroke-width="2.64"/>
       </g>
       <g transform="matrix(0.75, 0, 0, 0.75, 8.1, 274.5)">
        <path style="stroke-miterlimit:4;stroke-dasharray:none;display:inline" stroke-opacity="1" stroke="black" d="m49.68,104.4a2.88,2.88,0,1,1,-5.76,0,2.88,2.88,0,1,1,5.76,0z" fill="black" id="connector6pin" stroke-width="2.64"/>
       </g>
       <g transform="matrix(0.75, 0, 0, 0.75, 29.7, 274.5)">
        <path style="stroke-miterlimit:4;stroke-dasharray:none;display:inline" stroke-opacity="1" stroke="black" d="m49.68,104.4a2.88,2.88,0,1,1,-5.76,0,2.88,2.88,0,1,1,5.76,0z" fill="black" id="connector9pin" stroke-width="2.64"/>
       </g>
       <g transform="matrix(0.75, 0, 0, 0.75, 22.5, 274.5)">
        <path style="stroke-miterlimit:4;stroke-dasharray:none;display:inline" stroke-opacity="1" stroke="black" d="m49.68,104.4a2.88,2.88,0,1,1,-5.76,0,2.88,2.88,0,1,1,5.76,0z" fill="black" id="connector8pin" stroke-width="2.64"/>
       </g>
       <g transform="matrix(0.75, 0, 0, 0.75, 36.9, 274.5)">
        <path style="stroke-miterlimit:4;stroke-dasharray:none;display:inline" stroke-opacity="1" stroke="black" d="m49.68,104.4a2.88,2.88,0,1,1,-5.76,0,2.88,2.88,0,1,1,5.76,0z" fill="black" id="connector10pin" stroke-width="2.64"/>
       </g>
      </g>
     </g>
    </g>
   </g>
  </g>
 </g>
 <g partID="57491">
  <g transform="translate(125.285,119.824)">
   <g transform="matrix(-1,0,0,-1,0,0)">
    <g id="copper1" >
     <g id="copper0" >
      <rect stroke="black" width="4.176" fill="black" id="square" height="4.176" x="2.952" stroke-width="2.16" y="2.952" />
      <circle r="2.088" stroke="black" fill="black" id="connector0pin" stroke-width="2.16"  cx="5.04" cy="5.04"/>
      <circle r="2.088" stroke="black" fill="black" id="connector1pin" stroke-width="2.16"  cx="5.04" cy="12.24"/>
     </g>
    </g>
   </g>
  </g>
 </g>
 <g partID="854221221">
  <g transform="translate(14.4053,102.544)">
   <g id="copper1" >
    <g id="copper0" >
     <rect stroke="black" width="4.176" fill="black" id="square" height="4.176" x="2.952" stroke-width="2.16" y="2.952" />
     <circle r="2.088" stroke="black" fill="black" id="connector0pin" stroke-width="2.16"  cx="5.04" cy="5.04"/>
     <circle r="2.088" stroke="black" fill="black" id="connector1pin" stroke-width="2.16"  cx="5.04" cy="12.24"/>
    </g>
   </g>
  </g>
 </g>
 <g partID="57551">
  <g transform="translate(115.205,66.5438)">
   <g id="copper1" >
    <g id="copper0" >
     <rect stroke="black" width="4.176" fill="black" id="square" height="4.176" x="2.952" stroke-width="2.16" y="2.952" />
     <circle r="2.088" stroke="black" fill="black" id="connector0pin" stroke-width="2.16"  cx="5.04" cy="5.04"/>
     <circle r="2.088" stroke="black" fill="black" id="connector1pin" stroke-width="2.16"  cx="5.04" cy="12.24"/>
    </g>
   </g>
  </g>
 </g>
 <g partID="57581">
  <g transform="translate(14.4053,66.5438)">
   <g id="copper1" >
    <g id="copper0" >
     <rect stroke="black" width="4.176" fill="black" id="square" height="4.176" x="2.952" stroke-width="2.16" y="2.952" />
     <circle r="2.088" stroke="black" fill="black" id="connector0pin" stroke-width="2.16"  cx="5.04" cy="5.04"/>
     <circle r="2.088" stroke="black" fill="black" id="connector1pin" stroke-width="2.16"  cx="5.04" cy="12.24"/>
    </g>
   </g>
  </g>
 </g>
 <g partID="854197971">
  <g transform="translate(31.1453,104.488)">
   <g id="copper1" >
    <!-- <rect width="55" x="10" y="15.5" fill="none" height="55" stroke="rgb(255, 191, 0)" stroke-width="20" />  -->
    <circle r="1.98" stroke="black" fill="black" id="connector0pin" stroke-width="2.16"  cx="2.7" cy="3.096"/>
    <circle r="1.98" stroke="black" fill="black" id="connector1pin" stroke-width="2.16"  cx="31.5" cy="3.096"/>
   </g>
  </g>
 </g>
 <g partID="57721">
  <g transform="translate(31.1453,68.4878)">
   <g id="copper1" >
    <!-- <rect width="55" x="10" y="15.5" fill="none" height="55" stroke="rgb(255, 191, 0)" stroke-width="20" />  -->
    <circle r="1.98" stroke="black" fill="black" id="connector0pin" stroke-width="2.16"  cx="2.7" cy="3.096"/>
    <circle r="1.98" stroke="black" fill="black" id="connector1pin" stroke-width="2.16"  cx="31.5" cy="3.096"/>
   </g>
  </g>
 </g>
 <g partID="57671">
  <g transform="translate(101.345,74.6798)">
   <g transform="matrix(-1,0,0,-1,0,0)">
    <g id="copper1" >
     <!-- <rect width="55" x="10" y="15.5" fill="none" height="55" stroke="rgb(255, 191, 0)" stroke-width="20" />  -->
     <circle r="1.98" stroke="black" fill="black" id="connector0pin" stroke-width="2.16"  cx="2.7" cy="3.096"/>
     <circle r="1.98" stroke="black" fill="black" id="connector1pin" stroke-width="2.16"  cx="31.5" cy="3.096"/>
    </g>
   </g>
  </g>
 </g>
 <g partID="57641">
  <g transform="translate(86.9453,125.08)">
   <g transform="matrix(-1,0,0,-1,0,0)">
    <g id="copper1" >
     <!-- <rect width="55" x="10" y="15.5" fill="none" height="55" stroke="rgb(255, 191, 0)" stroke-width="20" />  -->
     <circle r="1.98" stroke="black" fill="black" id="connector0pin" stroke-width="2.16"  cx="2.7" cy="3.096"/>
     <circle r="1.98" stroke="black" fill="black" id="connector1pin" stroke-width="2.16"  cx="31.5" cy="3.096"/>
    </g>
   </g>
  </g>
 </g>
 <g partID="58201">
  <g transform="translate(-45.5399,-0.416226)">
   <g id="copper1" >
    <g id="copper0" >
     <circle r="1.883" stroke="black" fill="black" id="connector1pad" stroke-width="1.72"  cx="151.384" cy="144"/>
     <circle r="1.883" stroke="black" fill="black" id="connector2pad" stroke-width="1.72"  cx="158.583" cy="144"/>
     <circle r="1.883" stroke="black" fill="black" id="connector3pad" stroke-width="1.72"  cx="165.786" cy="144"/>
     <circle r="1.883" stroke="black" fill="black" id="connector4pad" stroke-width="1.72"  cx="172.985" cy="144"/>
     <circle r="1.883" stroke="black" fill="black" id="connector5pad" stroke-width="1.72"  cx="180.185" cy="144"/>
     <circle r="1.884" stroke="black" fill="black" id="connector51pad" stroke-width="1.72"  cx="118.263" cy="7.2"/>
     <circle r="1.884" stroke="black" fill="black" id="connector52pad" stroke-width="1.72"  cx="111.065" cy="7.2"/>
     <circle r="1.884" stroke="black" fill="black" id="connector53pad" stroke-width="1.72"  cx="103.864" cy="7.2"/>
     <circle r="1.884" stroke="black" fill="black" id="connector54pad" stroke-width="1.72"  cx="96.664" cy="7.2"/>
     <circle r="1.884" stroke="black" fill="black" id="connector55pad" stroke-width="1.72"  cx="89.464" cy="7.2"/>
     <circle r="1.884" stroke="black" fill="black" id="connector56pad" stroke-width="1.72"  cx="82.264" cy="7.2"/>
     <circle r="1.884" stroke="black" fill="black" id="connector57pad" stroke-width="1.72"  cx="75.064" cy="7.2"/>
     <circle r="1.884" stroke="black" fill="black" id="connector58pad" stroke-width="1.72"  cx="67.864" cy="7.2"/>
     <circle r="1.884" stroke="black" fill="black" id="connector59pad" stroke-width="1.72"  cx="60.664" cy="7.2"/>
     <circle r="1.884" stroke="black" fill="black" id="connector60pad" stroke-width="1.72"  cx="53.463" cy="7.2"/>
     <circle r="1.884" stroke="black" fill="black" id="connector61pad" stroke-width="1.72"  cx="180.185" cy="7.2"/>
     <circle r="1.884" stroke="black" fill="black" id="connector62pad" stroke-width="1.72"  cx="172.985" cy="7.2"/>
     <circle r="1.884" stroke="black" fill="black" id="connector63pad" stroke-width="1.72"  cx="165.786" cy="7.2"/>
     <circle r="1.884" stroke="black" fill="black" id="connector64pad" stroke-width="1.72"  cx="158.583" cy="7.2"/>
     <circle r="1.884" stroke="black" fill="black" id="connector65pad" stroke-width="1.72"  cx="151.384" cy="7.2"/>
     <circle r="1.884" stroke="black" fill="black" id="connector66pad" stroke-width="1.72"  cx="144.185" cy="7.2"/>
     <circle r="1.884" stroke="black" fill="black" id="connector67pad" stroke-width="1.72"  cx="136.985" cy="7.2"/>
     <circle r="1.884" stroke="black" fill="black" id="connector68pad" stroke-width="1.72"  cx="129.784" cy="7.2"/>
     <circle r="1.883" stroke="black" fill="black" id="connector84pad" stroke-width="1.72"  cx="86.584" cy="144"/>
     <circle r="1.883" stroke="black" fill="black" id="connector91pin" stroke-width="1.72"  cx="79.384" cy="144"/>
     <circle r="1.883" stroke="black" fill="black" id="connector85pad" stroke-width="1.72"  cx="93.784" cy="144"/>
     <circle r="1.883" stroke="black" fill="black" id="connector86pad" stroke-width="1.72"  cx="100.985" cy="144"/>
     <circle r="1.883" stroke="black" fill="black" id="connector87pad" stroke-width="1.72"  cx="108.185" cy="144"/>
     <circle r="1.883" stroke="black" fill="black" id="connector88pad" stroke-width="1.72"  cx="115.384" cy="144"/>
     <circle r="1.883" stroke="black" fill="black" id="connector89pad" stroke-width="1.72"  cx="122.583" cy="144"/>
     <circle r="1.883" stroke="black" fill="black" id="connector90pad" stroke-width="1.72"  cx="129.784" cy="144"/>
     <circle r="1.883" stroke="black" fill="black" id="connector0pad" stroke-width="1.72"  cx="144.185" cy="144"/>
    </g>
   </g>
  </g>
 </g>
</svg>
