G04 MADE WITH FRITZING*
G04 WWW.FRITZING.ORG*
G04 DOUBLE SIDED*
G04 HOLES PLATED*
G04 CONTOUR ON CENTER OF CONTOUR VECTOR*
%ASAXBY*%
%FSLAX23Y23*%
%MOIN*%
%OFA0B0*%
%SFA1.0B1.0*%
%ADD10C,0.060000*%
%ADD11C,0.078000*%
%ADD12C,0.075000*%
%ADD13C,0.066194*%
%ADD14C,0.066222*%
%ADD15R,0.078000X0.078000*%
%ADD16C,0.024000*%
%ADD17R,0.001000X0.001000*%
%LNCOPPER1*%
G90*
G70*
G54D10*
X670Y1292D03*
X570Y1292D03*
X470Y1292D03*
X370Y1292D03*
X270Y1292D03*
X870Y1292D03*
X770Y1292D03*
X1070Y1292D03*
X970Y1292D03*
X1170Y1292D03*
G54D11*
X1670Y492D03*
X1670Y592D03*
X270Y592D03*
X270Y492D03*
X1670Y1092D03*
X1670Y992D03*
X270Y1092D03*
X270Y992D03*
G54D12*
X470Y592D03*
X870Y592D03*
X470Y1092D03*
X870Y1092D03*
X1370Y1092D03*
X970Y1092D03*
X1170Y392D03*
X770Y392D03*
G54D13*
X1470Y92D03*
X1570Y92D03*
X1670Y92D03*
X1770Y92D03*
X1870Y92D03*
G54D14*
X1010Y1992D03*
X910Y1992D03*
X810Y1992D03*
X710Y1992D03*
X610Y1992D03*
X510Y1992D03*
X410Y1992D03*
X310Y1992D03*
X210Y1992D03*
X110Y1992D03*
X1870Y1992D03*
X1770Y1992D03*
X1670Y1992D03*
X1570Y1992D03*
X1470Y1992D03*
X1370Y1992D03*
X1270Y1992D03*
X1170Y1992D03*
G54D13*
X570Y92D03*
X470Y92D03*
X670Y92D03*
X770Y92D03*
X870Y92D03*
X970Y92D03*
X1070Y92D03*
X1170Y92D03*
X1370Y92D03*
G54D15*
X1670Y492D03*
X270Y592D03*
X1670Y1092D03*
X270Y1092D03*
G54D16*
X970Y493D02*
X970Y1064D01*
D02*
X869Y1194D02*
X170Y1192D01*
D02*
X1198Y398D02*
X1641Y486D01*
D02*
X1870Y592D02*
X1700Y592D01*
D02*
X1870Y291D02*
X1870Y592D01*
D02*
X871Y291D02*
X1870Y291D01*
D02*
X870Y123D02*
X871Y291D01*
D02*
X170Y1192D02*
X170Y1892D01*
D02*
X170Y1892D02*
X270Y1892D01*
D02*
X270Y1892D02*
X385Y1975D01*
D02*
X870Y1121D02*
X869Y1194D01*
D02*
X322Y1893D02*
X410Y1992D01*
D02*
X1630Y1492D02*
X671Y1492D01*
D02*
X671Y1492D02*
X670Y1324D01*
D02*
X1668Y1962D02*
X1630Y1492D01*
D02*
X796Y405D02*
X970Y493D01*
D02*
X941Y1092D02*
X899Y1092D01*
D02*
X870Y1064D02*
X870Y621D01*
D02*
X1071Y1193D02*
X969Y1192D01*
D02*
X1070Y1261D02*
X1071Y1193D01*
D02*
X969Y1192D02*
X970Y1121D01*
G54D17*
X264Y1333D02*
X275Y1333D01*
X364Y1333D02*
X375Y1333D01*
X464Y1333D02*
X475Y1333D01*
X564Y1333D02*
X574Y1333D01*
X664Y1333D02*
X674Y1333D01*
X764Y1333D02*
X774Y1333D01*
X864Y1333D02*
X874Y1333D01*
X964Y1333D02*
X974Y1333D01*
X1064Y1333D02*
X1074Y1333D01*
X1164Y1333D02*
X1174Y1333D01*
X260Y1332D02*
X279Y1332D01*
X360Y1332D02*
X379Y1332D01*
X460Y1332D02*
X479Y1332D01*
X560Y1332D02*
X579Y1332D01*
X660Y1332D02*
X679Y1332D01*
X760Y1332D02*
X779Y1332D01*
X860Y1332D02*
X879Y1332D01*
X960Y1332D02*
X979Y1332D01*
X1060Y1332D02*
X1079Y1332D01*
X1160Y1332D02*
X1179Y1332D01*
X257Y1331D02*
X282Y1331D01*
X357Y1331D02*
X382Y1331D01*
X457Y1331D02*
X482Y1331D01*
X557Y1331D02*
X582Y1331D01*
X657Y1331D02*
X682Y1331D01*
X757Y1331D02*
X782Y1331D01*
X857Y1331D02*
X882Y1331D01*
X957Y1331D02*
X982Y1331D01*
X1057Y1331D02*
X1082Y1331D01*
X1157Y1331D02*
X1182Y1331D01*
X255Y1330D02*
X284Y1330D01*
X355Y1330D02*
X384Y1330D01*
X455Y1330D02*
X484Y1330D01*
X555Y1330D02*
X584Y1330D01*
X655Y1330D02*
X684Y1330D01*
X755Y1330D02*
X784Y1330D01*
X855Y1330D02*
X884Y1330D01*
X954Y1330D02*
X984Y1330D01*
X1054Y1330D02*
X1084Y1330D01*
X1154Y1330D02*
X1184Y1330D01*
X253Y1329D02*
X286Y1329D01*
X353Y1329D02*
X386Y1329D01*
X453Y1329D02*
X486Y1329D01*
X553Y1329D02*
X586Y1329D01*
X653Y1329D02*
X686Y1329D01*
X753Y1329D02*
X786Y1329D01*
X853Y1329D02*
X886Y1329D01*
X953Y1329D02*
X986Y1329D01*
X1053Y1329D02*
X1086Y1329D01*
X1152Y1329D02*
X1186Y1329D01*
X251Y1328D02*
X288Y1328D01*
X351Y1328D02*
X388Y1328D01*
X451Y1328D02*
X488Y1328D01*
X551Y1328D02*
X588Y1328D01*
X651Y1328D02*
X688Y1328D01*
X751Y1328D02*
X788Y1328D01*
X851Y1328D02*
X888Y1328D01*
X951Y1328D02*
X988Y1328D01*
X1051Y1328D02*
X1088Y1328D01*
X1151Y1328D02*
X1188Y1328D01*
X249Y1327D02*
X290Y1327D01*
X349Y1327D02*
X390Y1327D01*
X449Y1327D02*
X490Y1327D01*
X549Y1327D02*
X590Y1327D01*
X649Y1327D02*
X690Y1327D01*
X749Y1327D02*
X790Y1327D01*
X849Y1327D02*
X890Y1327D01*
X949Y1327D02*
X989Y1327D01*
X1049Y1327D02*
X1089Y1327D01*
X1149Y1327D02*
X1189Y1327D01*
X248Y1326D02*
X291Y1326D01*
X348Y1326D02*
X391Y1326D01*
X448Y1326D02*
X491Y1326D01*
X548Y1326D02*
X591Y1326D01*
X648Y1326D02*
X691Y1326D01*
X748Y1326D02*
X791Y1326D01*
X848Y1326D02*
X891Y1326D01*
X948Y1326D02*
X991Y1326D01*
X1048Y1326D02*
X1091Y1326D01*
X1148Y1326D02*
X1191Y1326D01*
X247Y1325D02*
X292Y1325D01*
X346Y1325D02*
X392Y1325D01*
X446Y1325D02*
X492Y1325D01*
X546Y1325D02*
X592Y1325D01*
X646Y1325D02*
X692Y1325D01*
X746Y1325D02*
X792Y1325D01*
X846Y1325D02*
X892Y1325D01*
X946Y1325D02*
X992Y1325D01*
X1046Y1325D02*
X1092Y1325D01*
X1146Y1325D02*
X1192Y1325D01*
X245Y1324D02*
X294Y1324D01*
X345Y1324D02*
X394Y1324D01*
X445Y1324D02*
X494Y1324D01*
X545Y1324D02*
X594Y1324D01*
X645Y1324D02*
X694Y1324D01*
X745Y1324D02*
X794Y1324D01*
X845Y1324D02*
X894Y1324D01*
X945Y1324D02*
X994Y1324D01*
X1045Y1324D02*
X1094Y1324D01*
X1145Y1324D02*
X1194Y1324D01*
X244Y1323D02*
X295Y1323D01*
X344Y1323D02*
X395Y1323D01*
X444Y1323D02*
X495Y1323D01*
X544Y1323D02*
X595Y1323D01*
X644Y1323D02*
X695Y1323D01*
X744Y1323D02*
X795Y1323D01*
X844Y1323D02*
X895Y1323D01*
X944Y1323D02*
X995Y1323D01*
X1044Y1323D02*
X1095Y1323D01*
X1144Y1323D02*
X1195Y1323D01*
X243Y1322D02*
X296Y1322D01*
X343Y1322D02*
X396Y1322D01*
X443Y1322D02*
X496Y1322D01*
X543Y1322D02*
X596Y1322D01*
X643Y1322D02*
X696Y1322D01*
X743Y1322D02*
X796Y1322D01*
X843Y1322D02*
X896Y1322D01*
X943Y1322D02*
X996Y1322D01*
X1043Y1322D02*
X1096Y1322D01*
X1143Y1322D02*
X1196Y1322D01*
X242Y1321D02*
X297Y1321D01*
X342Y1321D02*
X397Y1321D01*
X442Y1321D02*
X497Y1321D01*
X542Y1321D02*
X597Y1321D01*
X642Y1321D02*
X697Y1321D01*
X742Y1321D02*
X797Y1321D01*
X842Y1321D02*
X897Y1321D01*
X942Y1321D02*
X997Y1321D01*
X1042Y1321D02*
X1097Y1321D01*
X1142Y1321D02*
X1197Y1321D01*
X241Y1320D02*
X298Y1320D01*
X341Y1320D02*
X398Y1320D01*
X441Y1320D02*
X498Y1320D01*
X541Y1320D02*
X598Y1320D01*
X641Y1320D02*
X698Y1320D01*
X741Y1320D02*
X798Y1320D01*
X841Y1320D02*
X898Y1320D01*
X941Y1320D02*
X998Y1320D01*
X1041Y1320D02*
X1098Y1320D01*
X1141Y1320D02*
X1198Y1320D01*
X240Y1319D02*
X299Y1319D01*
X340Y1319D02*
X399Y1319D01*
X440Y1319D02*
X499Y1319D01*
X540Y1319D02*
X599Y1319D01*
X640Y1319D02*
X699Y1319D01*
X740Y1319D02*
X799Y1319D01*
X840Y1319D02*
X899Y1319D01*
X940Y1319D02*
X999Y1319D01*
X1040Y1319D02*
X1099Y1319D01*
X1140Y1319D02*
X1199Y1319D01*
X239Y1318D02*
X300Y1318D01*
X339Y1318D02*
X400Y1318D01*
X439Y1318D02*
X500Y1318D01*
X539Y1318D02*
X600Y1318D01*
X639Y1318D02*
X700Y1318D01*
X739Y1318D02*
X800Y1318D01*
X839Y1318D02*
X900Y1318D01*
X939Y1318D02*
X1000Y1318D01*
X1039Y1318D02*
X1100Y1318D01*
X1139Y1318D02*
X1199Y1318D01*
X239Y1317D02*
X300Y1317D01*
X338Y1317D02*
X400Y1317D01*
X438Y1317D02*
X500Y1317D01*
X538Y1317D02*
X600Y1317D01*
X638Y1317D02*
X700Y1317D01*
X738Y1317D02*
X800Y1317D01*
X838Y1317D02*
X900Y1317D01*
X938Y1317D02*
X1000Y1317D01*
X1038Y1317D02*
X1100Y1317D01*
X1138Y1317D02*
X1200Y1317D01*
X238Y1316D02*
X301Y1316D01*
X338Y1316D02*
X401Y1316D01*
X438Y1316D02*
X501Y1316D01*
X538Y1316D02*
X601Y1316D01*
X638Y1316D02*
X701Y1316D01*
X738Y1316D02*
X801Y1316D01*
X838Y1316D02*
X901Y1316D01*
X938Y1316D02*
X1001Y1316D01*
X1038Y1316D02*
X1101Y1316D01*
X1138Y1316D02*
X1201Y1316D01*
X237Y1315D02*
X302Y1315D01*
X337Y1315D02*
X402Y1315D01*
X437Y1315D02*
X502Y1315D01*
X537Y1315D02*
X602Y1315D01*
X637Y1315D02*
X702Y1315D01*
X737Y1315D02*
X802Y1315D01*
X837Y1315D02*
X902Y1315D01*
X937Y1315D02*
X1002Y1315D01*
X1037Y1315D02*
X1102Y1315D01*
X1137Y1315D02*
X1202Y1315D01*
X236Y1314D02*
X303Y1314D01*
X336Y1314D02*
X403Y1314D01*
X436Y1314D02*
X503Y1314D01*
X536Y1314D02*
X603Y1314D01*
X636Y1314D02*
X702Y1314D01*
X736Y1314D02*
X802Y1314D01*
X836Y1314D02*
X902Y1314D01*
X936Y1314D02*
X1002Y1314D01*
X1036Y1314D02*
X1102Y1314D01*
X1136Y1314D02*
X1202Y1314D01*
X236Y1313D02*
X264Y1313D01*
X275Y1313D02*
X303Y1313D01*
X336Y1313D02*
X364Y1313D01*
X375Y1313D02*
X403Y1313D01*
X436Y1313D02*
X464Y1313D01*
X475Y1313D02*
X503Y1313D01*
X536Y1313D02*
X564Y1313D01*
X575Y1313D02*
X603Y1313D01*
X636Y1313D02*
X664Y1313D01*
X675Y1313D02*
X703Y1313D01*
X736Y1313D02*
X764Y1313D01*
X775Y1313D02*
X803Y1313D01*
X836Y1313D02*
X864Y1313D01*
X875Y1313D02*
X903Y1313D01*
X936Y1313D02*
X964Y1313D01*
X975Y1313D02*
X1003Y1313D01*
X1036Y1313D02*
X1064Y1313D01*
X1075Y1313D02*
X1103Y1313D01*
X1136Y1313D02*
X1164Y1313D01*
X1175Y1313D02*
X1203Y1313D01*
X235Y1312D02*
X260Y1312D01*
X279Y1312D02*
X304Y1312D01*
X335Y1312D02*
X360Y1312D01*
X379Y1312D02*
X404Y1312D01*
X435Y1312D02*
X460Y1312D01*
X479Y1312D02*
X504Y1312D01*
X535Y1312D02*
X560Y1312D01*
X579Y1312D02*
X604Y1312D01*
X635Y1312D02*
X660Y1312D01*
X679Y1312D02*
X704Y1312D01*
X735Y1312D02*
X760Y1312D01*
X779Y1312D02*
X804Y1312D01*
X835Y1312D02*
X860Y1312D01*
X878Y1312D02*
X904Y1312D01*
X935Y1312D02*
X960Y1312D01*
X978Y1312D02*
X1004Y1312D01*
X1035Y1312D02*
X1060Y1312D01*
X1078Y1312D02*
X1104Y1312D01*
X1135Y1312D02*
X1160Y1312D01*
X1178Y1312D02*
X1204Y1312D01*
X235Y1311D02*
X258Y1311D01*
X281Y1311D02*
X304Y1311D01*
X335Y1311D02*
X358Y1311D01*
X381Y1311D02*
X404Y1311D01*
X435Y1311D02*
X458Y1311D01*
X481Y1311D02*
X504Y1311D01*
X535Y1311D02*
X558Y1311D01*
X581Y1311D02*
X604Y1311D01*
X635Y1311D02*
X658Y1311D01*
X681Y1311D02*
X704Y1311D01*
X734Y1311D02*
X758Y1311D01*
X781Y1311D02*
X804Y1311D01*
X834Y1311D02*
X858Y1311D01*
X881Y1311D02*
X904Y1311D01*
X934Y1311D02*
X958Y1311D01*
X981Y1311D02*
X1004Y1311D01*
X1034Y1311D02*
X1058Y1311D01*
X1080Y1311D02*
X1104Y1311D01*
X1134Y1311D02*
X1158Y1311D01*
X1180Y1311D02*
X1204Y1311D01*
X234Y1310D02*
X257Y1310D01*
X282Y1310D02*
X305Y1310D01*
X334Y1310D02*
X357Y1310D01*
X382Y1310D02*
X405Y1310D01*
X434Y1310D02*
X457Y1310D01*
X482Y1310D02*
X505Y1310D01*
X534Y1310D02*
X557Y1310D01*
X582Y1310D02*
X605Y1310D01*
X634Y1310D02*
X657Y1310D01*
X682Y1310D02*
X705Y1310D01*
X734Y1310D02*
X756Y1310D01*
X782Y1310D02*
X805Y1310D01*
X834Y1310D02*
X856Y1310D01*
X882Y1310D02*
X905Y1310D01*
X934Y1310D02*
X956Y1310D01*
X982Y1310D02*
X1005Y1310D01*
X1034Y1310D02*
X1056Y1310D01*
X1082Y1310D02*
X1105Y1310D01*
X1134Y1310D02*
X1156Y1310D01*
X1182Y1310D02*
X1205Y1310D01*
X234Y1309D02*
X255Y1309D01*
X284Y1309D02*
X305Y1309D01*
X334Y1309D02*
X355Y1309D01*
X384Y1309D02*
X405Y1309D01*
X434Y1309D02*
X455Y1309D01*
X484Y1309D02*
X505Y1309D01*
X534Y1309D02*
X555Y1309D01*
X584Y1309D02*
X605Y1309D01*
X634Y1309D02*
X655Y1309D01*
X684Y1309D02*
X705Y1309D01*
X733Y1309D02*
X755Y1309D01*
X783Y1309D02*
X805Y1309D01*
X833Y1309D02*
X855Y1309D01*
X883Y1309D02*
X905Y1309D01*
X933Y1309D02*
X955Y1309D01*
X983Y1309D02*
X1005Y1309D01*
X1033Y1309D02*
X1055Y1309D01*
X1083Y1309D02*
X1105Y1309D01*
X1133Y1309D02*
X1155Y1309D01*
X1183Y1309D02*
X1205Y1309D01*
X233Y1308D02*
X254Y1308D01*
X285Y1308D02*
X306Y1308D01*
X333Y1308D02*
X354Y1308D01*
X385Y1308D02*
X406Y1308D01*
X433Y1308D02*
X454Y1308D01*
X485Y1308D02*
X506Y1308D01*
X533Y1308D02*
X554Y1308D01*
X585Y1308D02*
X606Y1308D01*
X633Y1308D02*
X654Y1308D01*
X685Y1308D02*
X706Y1308D01*
X733Y1308D02*
X754Y1308D01*
X785Y1308D02*
X806Y1308D01*
X833Y1308D02*
X854Y1308D01*
X885Y1308D02*
X906Y1308D01*
X933Y1308D02*
X954Y1308D01*
X985Y1308D02*
X1006Y1308D01*
X1033Y1308D02*
X1054Y1308D01*
X1085Y1308D02*
X1106Y1308D01*
X1133Y1308D02*
X1154Y1308D01*
X1185Y1308D02*
X1206Y1308D01*
X233Y1307D02*
X253Y1307D01*
X286Y1307D02*
X306Y1307D01*
X333Y1307D02*
X353Y1307D01*
X386Y1307D02*
X406Y1307D01*
X433Y1307D02*
X453Y1307D01*
X486Y1307D02*
X506Y1307D01*
X533Y1307D02*
X553Y1307D01*
X586Y1307D02*
X606Y1307D01*
X633Y1307D02*
X653Y1307D01*
X685Y1307D02*
X706Y1307D01*
X733Y1307D02*
X753Y1307D01*
X785Y1307D02*
X806Y1307D01*
X833Y1307D02*
X853Y1307D01*
X885Y1307D02*
X906Y1307D01*
X933Y1307D02*
X953Y1307D01*
X985Y1307D02*
X1006Y1307D01*
X1033Y1307D02*
X1053Y1307D01*
X1085Y1307D02*
X1106Y1307D01*
X1133Y1307D02*
X1153Y1307D01*
X1185Y1307D02*
X1206Y1307D01*
X232Y1306D02*
X253Y1306D01*
X286Y1306D02*
X307Y1306D01*
X332Y1306D02*
X353Y1306D01*
X386Y1306D02*
X407Y1306D01*
X432Y1306D02*
X453Y1306D01*
X486Y1306D02*
X507Y1306D01*
X532Y1306D02*
X553Y1306D01*
X586Y1306D02*
X607Y1306D01*
X632Y1306D02*
X653Y1306D01*
X686Y1306D02*
X707Y1306D01*
X732Y1306D02*
X752Y1306D01*
X786Y1306D02*
X807Y1306D01*
X832Y1306D02*
X852Y1306D01*
X886Y1306D02*
X906Y1306D01*
X932Y1306D02*
X952Y1306D01*
X986Y1306D02*
X1006Y1306D01*
X1032Y1306D02*
X1052Y1306D01*
X1086Y1306D02*
X1106Y1306D01*
X1132Y1306D02*
X1152Y1306D01*
X1186Y1306D02*
X1206Y1306D01*
X232Y1305D02*
X252Y1305D01*
X287Y1305D02*
X307Y1305D01*
X332Y1305D02*
X352Y1305D01*
X387Y1305D02*
X407Y1305D01*
X432Y1305D02*
X452Y1305D01*
X487Y1305D02*
X507Y1305D01*
X532Y1305D02*
X552Y1305D01*
X587Y1305D02*
X607Y1305D01*
X632Y1305D02*
X652Y1305D01*
X687Y1305D02*
X707Y1305D01*
X732Y1305D02*
X752Y1305D01*
X787Y1305D02*
X807Y1305D01*
X832Y1305D02*
X852Y1305D01*
X887Y1305D02*
X907Y1305D01*
X932Y1305D02*
X952Y1305D01*
X987Y1305D02*
X1007Y1305D01*
X1032Y1305D02*
X1052Y1305D01*
X1087Y1305D02*
X1107Y1305D01*
X1132Y1305D02*
X1152Y1305D01*
X1187Y1305D02*
X1207Y1305D01*
X232Y1304D02*
X251Y1304D01*
X288Y1304D02*
X307Y1304D01*
X332Y1304D02*
X351Y1304D01*
X388Y1304D02*
X407Y1304D01*
X432Y1304D02*
X451Y1304D01*
X488Y1304D02*
X507Y1304D01*
X532Y1304D02*
X551Y1304D01*
X588Y1304D02*
X607Y1304D01*
X632Y1304D02*
X651Y1304D01*
X687Y1304D02*
X707Y1304D01*
X732Y1304D02*
X751Y1304D01*
X787Y1304D02*
X807Y1304D01*
X832Y1304D02*
X851Y1304D01*
X887Y1304D02*
X907Y1304D01*
X931Y1304D02*
X951Y1304D01*
X987Y1304D02*
X1007Y1304D01*
X1031Y1304D02*
X1051Y1304D01*
X1087Y1304D02*
X1107Y1304D01*
X1131Y1304D02*
X1151Y1304D01*
X1187Y1304D02*
X1207Y1304D01*
X231Y1303D02*
X251Y1303D01*
X288Y1303D02*
X308Y1303D01*
X331Y1303D02*
X351Y1303D01*
X388Y1303D02*
X408Y1303D01*
X431Y1303D02*
X451Y1303D01*
X488Y1303D02*
X508Y1303D01*
X531Y1303D02*
X551Y1303D01*
X588Y1303D02*
X608Y1303D01*
X631Y1303D02*
X651Y1303D01*
X688Y1303D02*
X708Y1303D01*
X731Y1303D02*
X751Y1303D01*
X788Y1303D02*
X807Y1303D01*
X831Y1303D02*
X851Y1303D01*
X888Y1303D02*
X907Y1303D01*
X931Y1303D02*
X951Y1303D01*
X988Y1303D02*
X1007Y1303D01*
X1031Y1303D02*
X1051Y1303D01*
X1088Y1303D02*
X1107Y1303D01*
X1131Y1303D02*
X1151Y1303D01*
X1188Y1303D02*
X1207Y1303D01*
X231Y1302D02*
X250Y1302D01*
X289Y1302D02*
X308Y1302D01*
X331Y1302D02*
X350Y1302D01*
X389Y1302D02*
X408Y1302D01*
X431Y1302D02*
X450Y1302D01*
X488Y1302D02*
X508Y1302D01*
X531Y1302D02*
X550Y1302D01*
X588Y1302D02*
X608Y1302D01*
X631Y1302D02*
X650Y1302D01*
X688Y1302D02*
X708Y1302D01*
X731Y1302D02*
X750Y1302D01*
X788Y1302D02*
X808Y1302D01*
X831Y1302D02*
X850Y1302D01*
X888Y1302D02*
X908Y1302D01*
X931Y1302D02*
X950Y1302D01*
X988Y1302D02*
X1008Y1302D01*
X1031Y1302D02*
X1050Y1302D01*
X1088Y1302D02*
X1108Y1302D01*
X1131Y1302D02*
X1150Y1302D01*
X1188Y1302D02*
X1208Y1302D01*
X231Y1301D02*
X250Y1301D01*
X289Y1301D02*
X308Y1301D01*
X331Y1301D02*
X350Y1301D01*
X389Y1301D02*
X408Y1301D01*
X431Y1301D02*
X450Y1301D01*
X489Y1301D02*
X508Y1301D01*
X531Y1301D02*
X550Y1301D01*
X589Y1301D02*
X608Y1301D01*
X631Y1301D02*
X650Y1301D01*
X689Y1301D02*
X708Y1301D01*
X731Y1301D02*
X750Y1301D01*
X789Y1301D02*
X808Y1301D01*
X831Y1301D02*
X850Y1301D01*
X889Y1301D02*
X908Y1301D01*
X931Y1301D02*
X950Y1301D01*
X989Y1301D02*
X1008Y1301D01*
X1031Y1301D02*
X1050Y1301D01*
X1089Y1301D02*
X1108Y1301D01*
X1131Y1301D02*
X1150Y1301D01*
X1189Y1301D02*
X1208Y1301D01*
X231Y1300D02*
X250Y1300D01*
X289Y1300D02*
X308Y1300D01*
X331Y1300D02*
X350Y1300D01*
X389Y1300D02*
X408Y1300D01*
X431Y1300D02*
X450Y1300D01*
X489Y1300D02*
X508Y1300D01*
X531Y1300D02*
X550Y1300D01*
X589Y1300D02*
X608Y1300D01*
X631Y1300D02*
X650Y1300D01*
X689Y1300D02*
X708Y1300D01*
X731Y1300D02*
X750Y1300D01*
X789Y1300D02*
X808Y1300D01*
X831Y1300D02*
X850Y1300D01*
X889Y1300D02*
X908Y1300D01*
X930Y1300D02*
X950Y1300D01*
X989Y1300D02*
X1008Y1300D01*
X1030Y1300D02*
X1050Y1300D01*
X1089Y1300D02*
X1108Y1300D01*
X1130Y1300D02*
X1150Y1300D01*
X1189Y1300D02*
X1208Y1300D01*
X231Y1299D02*
X250Y1299D01*
X289Y1299D02*
X308Y1299D01*
X330Y1299D02*
X350Y1299D01*
X389Y1299D02*
X408Y1299D01*
X430Y1299D02*
X450Y1299D01*
X489Y1299D02*
X508Y1299D01*
X530Y1299D02*
X550Y1299D01*
X589Y1299D02*
X608Y1299D01*
X630Y1299D02*
X650Y1299D01*
X689Y1299D02*
X708Y1299D01*
X730Y1299D02*
X749Y1299D01*
X789Y1299D02*
X808Y1299D01*
X830Y1299D02*
X849Y1299D01*
X889Y1299D02*
X908Y1299D01*
X930Y1299D02*
X949Y1299D01*
X989Y1299D02*
X1008Y1299D01*
X1030Y1299D02*
X1049Y1299D01*
X1089Y1299D02*
X1108Y1299D01*
X1130Y1299D02*
X1149Y1299D01*
X1189Y1299D02*
X1208Y1299D01*
X230Y1298D02*
X249Y1298D01*
X290Y1298D02*
X309Y1298D01*
X330Y1298D02*
X349Y1298D01*
X390Y1298D02*
X409Y1298D01*
X430Y1298D02*
X449Y1298D01*
X490Y1298D02*
X509Y1298D01*
X530Y1298D02*
X549Y1298D01*
X590Y1298D02*
X609Y1298D01*
X630Y1298D02*
X649Y1298D01*
X690Y1298D02*
X709Y1298D01*
X730Y1298D02*
X749Y1298D01*
X789Y1298D02*
X809Y1298D01*
X830Y1298D02*
X849Y1298D01*
X889Y1298D02*
X909Y1298D01*
X930Y1298D02*
X949Y1298D01*
X989Y1298D02*
X1008Y1298D01*
X1030Y1298D02*
X1049Y1298D01*
X1089Y1298D02*
X1108Y1298D01*
X1130Y1298D02*
X1149Y1298D01*
X1189Y1298D02*
X1208Y1298D01*
X230Y1297D02*
X249Y1297D01*
X290Y1297D02*
X309Y1297D01*
X330Y1297D02*
X349Y1297D01*
X390Y1297D02*
X409Y1297D01*
X430Y1297D02*
X449Y1297D01*
X490Y1297D02*
X509Y1297D01*
X530Y1297D02*
X549Y1297D01*
X590Y1297D02*
X609Y1297D01*
X630Y1297D02*
X649Y1297D01*
X690Y1297D02*
X709Y1297D01*
X730Y1297D02*
X749Y1297D01*
X790Y1297D02*
X809Y1297D01*
X830Y1297D02*
X849Y1297D01*
X890Y1297D02*
X909Y1297D01*
X930Y1297D02*
X949Y1297D01*
X990Y1297D02*
X1009Y1297D01*
X1030Y1297D02*
X1049Y1297D01*
X1090Y1297D02*
X1109Y1297D01*
X1130Y1297D02*
X1149Y1297D01*
X1189Y1297D02*
X1209Y1297D01*
X230Y1296D02*
X249Y1296D01*
X290Y1296D02*
X309Y1296D01*
X330Y1296D02*
X349Y1296D01*
X390Y1296D02*
X409Y1296D01*
X430Y1296D02*
X449Y1296D01*
X490Y1296D02*
X509Y1296D01*
X530Y1296D02*
X549Y1296D01*
X590Y1296D02*
X609Y1296D01*
X630Y1296D02*
X649Y1296D01*
X690Y1296D02*
X709Y1296D01*
X730Y1296D02*
X749Y1296D01*
X790Y1296D02*
X809Y1296D01*
X830Y1296D02*
X849Y1296D01*
X890Y1296D02*
X909Y1296D01*
X930Y1296D02*
X949Y1296D01*
X990Y1296D02*
X1009Y1296D01*
X1030Y1296D02*
X1049Y1296D01*
X1090Y1296D02*
X1109Y1296D01*
X1130Y1296D02*
X1149Y1296D01*
X1190Y1296D02*
X1209Y1296D01*
X230Y1295D02*
X249Y1295D01*
X290Y1295D02*
X309Y1295D01*
X330Y1295D02*
X349Y1295D01*
X390Y1295D02*
X409Y1295D01*
X430Y1295D02*
X449Y1295D01*
X490Y1295D02*
X509Y1295D01*
X530Y1295D02*
X549Y1295D01*
X590Y1295D02*
X609Y1295D01*
X630Y1295D02*
X649Y1295D01*
X690Y1295D02*
X709Y1295D01*
X730Y1295D02*
X749Y1295D01*
X790Y1295D02*
X809Y1295D01*
X830Y1295D02*
X849Y1295D01*
X890Y1295D02*
X909Y1295D01*
X930Y1295D02*
X949Y1295D01*
X990Y1295D02*
X1009Y1295D01*
X1030Y1295D02*
X1049Y1295D01*
X1090Y1295D02*
X1109Y1295D01*
X1130Y1295D02*
X1149Y1295D01*
X1190Y1295D02*
X1209Y1295D01*
X230Y1294D02*
X249Y1294D01*
X290Y1294D02*
X309Y1294D01*
X330Y1294D02*
X349Y1294D01*
X390Y1294D02*
X409Y1294D01*
X430Y1294D02*
X449Y1294D01*
X490Y1294D02*
X509Y1294D01*
X530Y1294D02*
X549Y1294D01*
X590Y1294D02*
X609Y1294D01*
X630Y1294D02*
X649Y1294D01*
X690Y1294D02*
X709Y1294D01*
X730Y1294D02*
X749Y1294D01*
X790Y1294D02*
X809Y1294D01*
X830Y1294D02*
X849Y1294D01*
X890Y1294D02*
X909Y1294D01*
X930Y1294D02*
X949Y1294D01*
X990Y1294D02*
X1009Y1294D01*
X1030Y1294D02*
X1049Y1294D01*
X1090Y1294D02*
X1109Y1294D01*
X1130Y1294D02*
X1149Y1294D01*
X1190Y1294D02*
X1209Y1294D01*
X230Y1293D02*
X249Y1293D01*
X290Y1293D02*
X309Y1293D01*
X330Y1293D02*
X349Y1293D01*
X390Y1293D02*
X409Y1293D01*
X430Y1293D02*
X449Y1293D01*
X490Y1293D02*
X509Y1293D01*
X530Y1293D02*
X549Y1293D01*
X590Y1293D02*
X609Y1293D01*
X630Y1293D02*
X649Y1293D01*
X690Y1293D02*
X709Y1293D01*
X730Y1293D02*
X749Y1293D01*
X790Y1293D02*
X809Y1293D01*
X830Y1293D02*
X849Y1293D01*
X890Y1293D02*
X909Y1293D01*
X930Y1293D02*
X949Y1293D01*
X990Y1293D02*
X1009Y1293D01*
X1030Y1293D02*
X1049Y1293D01*
X1090Y1293D02*
X1109Y1293D01*
X1130Y1293D02*
X1149Y1293D01*
X1190Y1293D02*
X1209Y1293D01*
X230Y1292D02*
X249Y1292D01*
X290Y1292D02*
X309Y1292D01*
X330Y1292D02*
X349Y1292D01*
X390Y1292D02*
X409Y1292D01*
X430Y1292D02*
X449Y1292D01*
X490Y1292D02*
X509Y1292D01*
X530Y1292D02*
X549Y1292D01*
X590Y1292D02*
X609Y1292D01*
X630Y1292D02*
X649Y1292D01*
X690Y1292D02*
X709Y1292D01*
X730Y1292D02*
X749Y1292D01*
X790Y1292D02*
X809Y1292D01*
X830Y1292D02*
X849Y1292D01*
X890Y1292D02*
X909Y1292D01*
X930Y1292D02*
X949Y1292D01*
X990Y1292D02*
X1009Y1292D01*
X1030Y1292D02*
X1049Y1292D01*
X1090Y1292D02*
X1109Y1292D01*
X1130Y1292D02*
X1149Y1292D01*
X1190Y1292D02*
X1209Y1292D01*
X230Y1291D02*
X249Y1291D01*
X290Y1291D02*
X309Y1291D01*
X330Y1291D02*
X349Y1291D01*
X390Y1291D02*
X409Y1291D01*
X430Y1291D02*
X449Y1291D01*
X490Y1291D02*
X509Y1291D01*
X530Y1291D02*
X549Y1291D01*
X590Y1291D02*
X609Y1291D01*
X630Y1291D02*
X649Y1291D01*
X690Y1291D02*
X709Y1291D01*
X730Y1291D02*
X749Y1291D01*
X790Y1291D02*
X809Y1291D01*
X830Y1291D02*
X849Y1291D01*
X890Y1291D02*
X909Y1291D01*
X930Y1291D02*
X949Y1291D01*
X990Y1291D02*
X1009Y1291D01*
X1030Y1291D02*
X1049Y1291D01*
X1090Y1291D02*
X1109Y1291D01*
X1130Y1291D02*
X1149Y1291D01*
X1190Y1291D02*
X1209Y1291D01*
X230Y1290D02*
X249Y1290D01*
X290Y1290D02*
X309Y1290D01*
X330Y1290D02*
X349Y1290D01*
X390Y1290D02*
X409Y1290D01*
X430Y1290D02*
X449Y1290D01*
X490Y1290D02*
X509Y1290D01*
X530Y1290D02*
X549Y1290D01*
X590Y1290D02*
X609Y1290D01*
X630Y1290D02*
X649Y1290D01*
X690Y1290D02*
X709Y1290D01*
X730Y1290D02*
X749Y1290D01*
X790Y1290D02*
X809Y1290D01*
X830Y1290D02*
X849Y1290D01*
X890Y1290D02*
X909Y1290D01*
X930Y1290D02*
X949Y1290D01*
X990Y1290D02*
X1009Y1290D01*
X1030Y1290D02*
X1049Y1290D01*
X1090Y1290D02*
X1109Y1290D01*
X1130Y1290D02*
X1149Y1290D01*
X1189Y1290D02*
X1209Y1290D01*
X230Y1289D02*
X249Y1289D01*
X290Y1289D02*
X309Y1289D01*
X330Y1289D02*
X349Y1289D01*
X390Y1289D02*
X409Y1289D01*
X430Y1289D02*
X449Y1289D01*
X490Y1289D02*
X509Y1289D01*
X530Y1289D02*
X549Y1289D01*
X590Y1289D02*
X609Y1289D01*
X630Y1289D02*
X649Y1289D01*
X690Y1289D02*
X709Y1289D01*
X730Y1289D02*
X749Y1289D01*
X789Y1289D02*
X809Y1289D01*
X830Y1289D02*
X849Y1289D01*
X889Y1289D02*
X909Y1289D01*
X930Y1289D02*
X949Y1289D01*
X989Y1289D02*
X1008Y1289D01*
X1030Y1289D02*
X1049Y1289D01*
X1089Y1289D02*
X1108Y1289D01*
X1130Y1289D02*
X1149Y1289D01*
X1189Y1289D02*
X1208Y1289D01*
X231Y1288D02*
X250Y1288D01*
X289Y1288D02*
X308Y1288D01*
X330Y1288D02*
X350Y1288D01*
X389Y1288D02*
X408Y1288D01*
X430Y1288D02*
X450Y1288D01*
X489Y1288D02*
X508Y1288D01*
X530Y1288D02*
X550Y1288D01*
X589Y1288D02*
X608Y1288D01*
X630Y1288D02*
X650Y1288D01*
X689Y1288D02*
X708Y1288D01*
X730Y1288D02*
X750Y1288D01*
X789Y1288D02*
X808Y1288D01*
X830Y1288D02*
X849Y1288D01*
X889Y1288D02*
X908Y1288D01*
X930Y1288D02*
X949Y1288D01*
X989Y1288D02*
X1008Y1288D01*
X1030Y1288D02*
X1049Y1288D01*
X1089Y1288D02*
X1108Y1288D01*
X1130Y1288D02*
X1149Y1288D01*
X1189Y1288D02*
X1208Y1288D01*
X231Y1287D02*
X250Y1287D01*
X289Y1287D02*
X308Y1287D01*
X331Y1287D02*
X350Y1287D01*
X389Y1287D02*
X408Y1287D01*
X431Y1287D02*
X450Y1287D01*
X489Y1287D02*
X508Y1287D01*
X531Y1287D02*
X550Y1287D01*
X589Y1287D02*
X608Y1287D01*
X631Y1287D02*
X650Y1287D01*
X689Y1287D02*
X708Y1287D01*
X731Y1287D02*
X750Y1287D01*
X789Y1287D02*
X808Y1287D01*
X831Y1287D02*
X850Y1287D01*
X889Y1287D02*
X908Y1287D01*
X931Y1287D02*
X950Y1287D01*
X989Y1287D02*
X1008Y1287D01*
X1030Y1287D02*
X1050Y1287D01*
X1089Y1287D02*
X1108Y1287D01*
X1130Y1287D02*
X1150Y1287D01*
X1189Y1287D02*
X1208Y1287D01*
X231Y1286D02*
X250Y1286D01*
X289Y1286D02*
X308Y1286D01*
X331Y1286D02*
X350Y1286D01*
X389Y1286D02*
X408Y1286D01*
X431Y1286D02*
X450Y1286D01*
X489Y1286D02*
X508Y1286D01*
X531Y1286D02*
X550Y1286D01*
X589Y1286D02*
X608Y1286D01*
X631Y1286D02*
X650Y1286D01*
X689Y1286D02*
X708Y1286D01*
X731Y1286D02*
X750Y1286D01*
X789Y1286D02*
X808Y1286D01*
X831Y1286D02*
X850Y1286D01*
X889Y1286D02*
X908Y1286D01*
X931Y1286D02*
X950Y1286D01*
X989Y1286D02*
X1008Y1286D01*
X1031Y1286D02*
X1050Y1286D01*
X1089Y1286D02*
X1108Y1286D01*
X1131Y1286D02*
X1150Y1286D01*
X1189Y1286D02*
X1208Y1286D01*
X231Y1285D02*
X250Y1285D01*
X289Y1285D02*
X308Y1285D01*
X331Y1285D02*
X350Y1285D01*
X388Y1285D02*
X408Y1285D01*
X431Y1285D02*
X450Y1285D01*
X488Y1285D02*
X508Y1285D01*
X531Y1285D02*
X550Y1285D01*
X588Y1285D02*
X608Y1285D01*
X631Y1285D02*
X650Y1285D01*
X688Y1285D02*
X708Y1285D01*
X731Y1285D02*
X750Y1285D01*
X788Y1285D02*
X808Y1285D01*
X831Y1285D02*
X850Y1285D01*
X888Y1285D02*
X908Y1285D01*
X931Y1285D02*
X950Y1285D01*
X988Y1285D02*
X1008Y1285D01*
X1031Y1285D02*
X1050Y1285D01*
X1088Y1285D02*
X1108Y1285D01*
X1131Y1285D02*
X1150Y1285D01*
X1188Y1285D02*
X1208Y1285D01*
X231Y1284D02*
X251Y1284D01*
X288Y1284D02*
X308Y1284D01*
X331Y1284D02*
X351Y1284D01*
X388Y1284D02*
X408Y1284D01*
X431Y1284D02*
X451Y1284D01*
X488Y1284D02*
X508Y1284D01*
X531Y1284D02*
X551Y1284D01*
X588Y1284D02*
X608Y1284D01*
X631Y1284D02*
X651Y1284D01*
X688Y1284D02*
X707Y1284D01*
X731Y1284D02*
X751Y1284D01*
X788Y1284D02*
X807Y1284D01*
X831Y1284D02*
X851Y1284D01*
X888Y1284D02*
X907Y1284D01*
X931Y1284D02*
X951Y1284D01*
X988Y1284D02*
X1007Y1284D01*
X1031Y1284D02*
X1051Y1284D01*
X1088Y1284D02*
X1107Y1284D01*
X1131Y1284D02*
X1151Y1284D01*
X1188Y1284D02*
X1207Y1284D01*
X232Y1283D02*
X251Y1283D01*
X288Y1283D02*
X307Y1283D01*
X332Y1283D02*
X351Y1283D01*
X388Y1283D02*
X407Y1283D01*
X432Y1283D02*
X451Y1283D01*
X488Y1283D02*
X507Y1283D01*
X532Y1283D02*
X551Y1283D01*
X587Y1283D02*
X607Y1283D01*
X632Y1283D02*
X651Y1283D01*
X687Y1283D02*
X707Y1283D01*
X732Y1283D02*
X751Y1283D01*
X787Y1283D02*
X807Y1283D01*
X832Y1283D02*
X851Y1283D01*
X887Y1283D02*
X907Y1283D01*
X932Y1283D02*
X951Y1283D01*
X987Y1283D02*
X1007Y1283D01*
X1031Y1283D02*
X1051Y1283D01*
X1087Y1283D02*
X1107Y1283D01*
X1131Y1283D02*
X1151Y1283D01*
X1187Y1283D02*
X1207Y1283D01*
X232Y1282D02*
X252Y1282D01*
X287Y1282D02*
X307Y1282D01*
X332Y1282D02*
X352Y1282D01*
X387Y1282D02*
X407Y1282D01*
X432Y1282D02*
X452Y1282D01*
X487Y1282D02*
X507Y1282D01*
X532Y1282D02*
X552Y1282D01*
X587Y1282D02*
X607Y1282D01*
X632Y1282D02*
X652Y1282D01*
X687Y1282D02*
X707Y1282D01*
X732Y1282D02*
X752Y1282D01*
X787Y1282D02*
X807Y1282D01*
X832Y1282D02*
X852Y1282D01*
X887Y1282D02*
X907Y1282D01*
X932Y1282D02*
X952Y1282D01*
X987Y1282D02*
X1007Y1282D01*
X1032Y1282D02*
X1052Y1282D01*
X1087Y1282D02*
X1107Y1282D01*
X1132Y1282D02*
X1152Y1282D01*
X1187Y1282D02*
X1207Y1282D01*
X232Y1281D02*
X253Y1281D01*
X286Y1281D02*
X307Y1281D01*
X332Y1281D02*
X353Y1281D01*
X386Y1281D02*
X407Y1281D01*
X432Y1281D02*
X453Y1281D01*
X486Y1281D02*
X507Y1281D01*
X532Y1281D02*
X553Y1281D01*
X586Y1281D02*
X607Y1281D01*
X632Y1281D02*
X653Y1281D01*
X686Y1281D02*
X707Y1281D01*
X732Y1281D02*
X753Y1281D01*
X786Y1281D02*
X806Y1281D01*
X832Y1281D02*
X852Y1281D01*
X886Y1281D02*
X906Y1281D01*
X932Y1281D02*
X952Y1281D01*
X986Y1281D02*
X1006Y1281D01*
X1032Y1281D02*
X1052Y1281D01*
X1086Y1281D02*
X1106Y1281D01*
X1132Y1281D02*
X1152Y1281D01*
X1186Y1281D02*
X1206Y1281D01*
X233Y1280D02*
X253Y1280D01*
X286Y1280D02*
X306Y1280D01*
X333Y1280D02*
X353Y1280D01*
X386Y1280D02*
X406Y1280D01*
X433Y1280D02*
X453Y1280D01*
X486Y1280D02*
X506Y1280D01*
X533Y1280D02*
X553Y1280D01*
X585Y1280D02*
X606Y1280D01*
X633Y1280D02*
X653Y1280D01*
X685Y1280D02*
X706Y1280D01*
X733Y1280D02*
X753Y1280D01*
X785Y1280D02*
X806Y1280D01*
X833Y1280D02*
X853Y1280D01*
X885Y1280D02*
X906Y1280D01*
X933Y1280D02*
X953Y1280D01*
X985Y1280D02*
X1006Y1280D01*
X1033Y1280D02*
X1053Y1280D01*
X1085Y1280D02*
X1106Y1280D01*
X1133Y1280D02*
X1153Y1280D01*
X1185Y1280D02*
X1206Y1280D01*
X233Y1279D02*
X254Y1279D01*
X285Y1279D02*
X306Y1279D01*
X333Y1279D02*
X354Y1279D01*
X385Y1279D02*
X406Y1279D01*
X433Y1279D02*
X454Y1279D01*
X485Y1279D02*
X506Y1279D01*
X533Y1279D02*
X554Y1279D01*
X585Y1279D02*
X606Y1279D01*
X633Y1279D02*
X654Y1279D01*
X685Y1279D02*
X706Y1279D01*
X733Y1279D02*
X754Y1279D01*
X785Y1279D02*
X806Y1279D01*
X833Y1279D02*
X854Y1279D01*
X885Y1279D02*
X906Y1279D01*
X933Y1279D02*
X954Y1279D01*
X985Y1279D02*
X1006Y1279D01*
X1033Y1279D02*
X1054Y1279D01*
X1085Y1279D02*
X1106Y1279D01*
X1133Y1279D02*
X1154Y1279D01*
X1185Y1279D02*
X1206Y1279D01*
X234Y1278D02*
X255Y1278D01*
X284Y1278D02*
X305Y1278D01*
X334Y1278D02*
X355Y1278D01*
X384Y1278D02*
X405Y1278D01*
X434Y1278D02*
X455Y1278D01*
X484Y1278D02*
X505Y1278D01*
X534Y1278D02*
X555Y1278D01*
X583Y1278D02*
X605Y1278D01*
X634Y1278D02*
X655Y1278D01*
X683Y1278D02*
X705Y1278D01*
X733Y1278D02*
X755Y1278D01*
X783Y1278D02*
X805Y1278D01*
X833Y1278D02*
X855Y1278D01*
X883Y1278D02*
X905Y1278D01*
X933Y1278D02*
X955Y1278D01*
X983Y1278D02*
X1005Y1278D01*
X1033Y1278D02*
X1055Y1278D01*
X1083Y1278D02*
X1105Y1278D01*
X1133Y1278D02*
X1155Y1278D01*
X1183Y1278D02*
X1205Y1278D01*
X234Y1277D02*
X257Y1277D01*
X282Y1277D02*
X305Y1277D01*
X334Y1277D02*
X357Y1277D01*
X382Y1277D02*
X405Y1277D01*
X434Y1277D02*
X457Y1277D01*
X482Y1277D02*
X505Y1277D01*
X534Y1277D02*
X557Y1277D01*
X582Y1277D02*
X605Y1277D01*
X634Y1277D02*
X657Y1277D01*
X682Y1277D02*
X705Y1277D01*
X734Y1277D02*
X757Y1277D01*
X782Y1277D02*
X805Y1277D01*
X834Y1277D02*
X857Y1277D01*
X882Y1277D02*
X905Y1277D01*
X934Y1277D02*
X957Y1277D01*
X982Y1277D02*
X1005Y1277D01*
X1034Y1277D02*
X1056Y1277D01*
X1082Y1277D02*
X1105Y1277D01*
X1134Y1277D02*
X1156Y1277D01*
X1182Y1277D02*
X1205Y1277D01*
X235Y1276D02*
X258Y1276D01*
X281Y1276D02*
X304Y1276D01*
X335Y1276D02*
X358Y1276D01*
X381Y1276D02*
X404Y1276D01*
X435Y1276D02*
X458Y1276D01*
X481Y1276D02*
X504Y1276D01*
X535Y1276D02*
X558Y1276D01*
X581Y1276D02*
X604Y1276D01*
X635Y1276D02*
X658Y1276D01*
X680Y1276D02*
X704Y1276D01*
X735Y1276D02*
X758Y1276D01*
X780Y1276D02*
X804Y1276D01*
X834Y1276D02*
X858Y1276D01*
X880Y1276D02*
X904Y1276D01*
X934Y1276D02*
X958Y1276D01*
X980Y1276D02*
X1004Y1276D01*
X1034Y1276D02*
X1058Y1276D01*
X1080Y1276D02*
X1104Y1276D01*
X1134Y1276D02*
X1158Y1276D01*
X1180Y1276D02*
X1204Y1276D01*
X235Y1275D02*
X260Y1275D01*
X279Y1275D02*
X304Y1275D01*
X335Y1275D02*
X360Y1275D01*
X378Y1275D02*
X404Y1275D01*
X435Y1275D02*
X460Y1275D01*
X478Y1275D02*
X504Y1275D01*
X535Y1275D02*
X560Y1275D01*
X578Y1275D02*
X604Y1275D01*
X635Y1275D02*
X660Y1275D01*
X678Y1275D02*
X704Y1275D01*
X735Y1275D02*
X760Y1275D01*
X778Y1275D02*
X804Y1275D01*
X835Y1275D02*
X860Y1275D01*
X878Y1275D02*
X904Y1275D01*
X935Y1275D02*
X960Y1275D01*
X978Y1275D02*
X1004Y1275D01*
X1035Y1275D02*
X1060Y1275D01*
X1078Y1275D02*
X1104Y1275D01*
X1135Y1275D02*
X1160Y1275D01*
X1178Y1275D02*
X1204Y1275D01*
X236Y1274D02*
X264Y1274D01*
X275Y1274D02*
X303Y1274D01*
X336Y1274D02*
X364Y1274D01*
X375Y1274D02*
X403Y1274D01*
X436Y1274D02*
X464Y1274D01*
X475Y1274D02*
X503Y1274D01*
X536Y1274D02*
X564Y1274D01*
X575Y1274D02*
X603Y1274D01*
X636Y1274D02*
X664Y1274D01*
X675Y1274D02*
X703Y1274D01*
X736Y1274D02*
X764Y1274D01*
X775Y1274D02*
X803Y1274D01*
X836Y1274D02*
X864Y1274D01*
X875Y1274D02*
X903Y1274D01*
X936Y1274D02*
X964Y1274D01*
X975Y1274D02*
X1003Y1274D01*
X1036Y1274D02*
X1064Y1274D01*
X1075Y1274D02*
X1103Y1274D01*
X1136Y1274D02*
X1164Y1274D01*
X1175Y1274D02*
X1203Y1274D01*
X236Y1273D02*
X303Y1273D01*
X336Y1273D02*
X403Y1273D01*
X436Y1273D02*
X503Y1273D01*
X536Y1273D02*
X602Y1273D01*
X636Y1273D02*
X702Y1273D01*
X736Y1273D02*
X802Y1273D01*
X836Y1273D02*
X902Y1273D01*
X936Y1273D02*
X1002Y1273D01*
X1036Y1273D02*
X1102Y1273D01*
X1136Y1273D02*
X1202Y1273D01*
X237Y1272D02*
X302Y1272D01*
X337Y1272D02*
X402Y1272D01*
X437Y1272D02*
X502Y1272D01*
X537Y1272D02*
X602Y1272D01*
X637Y1272D02*
X702Y1272D01*
X737Y1272D02*
X802Y1272D01*
X837Y1272D02*
X902Y1272D01*
X937Y1272D02*
X1002Y1272D01*
X1037Y1272D02*
X1102Y1272D01*
X1137Y1272D02*
X1202Y1272D01*
X238Y1271D02*
X301Y1271D01*
X338Y1271D02*
X401Y1271D01*
X438Y1271D02*
X501Y1271D01*
X538Y1271D02*
X601Y1271D01*
X638Y1271D02*
X701Y1271D01*
X738Y1271D02*
X801Y1271D01*
X838Y1271D02*
X901Y1271D01*
X938Y1271D02*
X1001Y1271D01*
X1038Y1271D02*
X1101Y1271D01*
X1138Y1271D02*
X1201Y1271D01*
X239Y1270D02*
X300Y1270D01*
X339Y1270D02*
X400Y1270D01*
X439Y1270D02*
X500Y1270D01*
X538Y1270D02*
X600Y1270D01*
X638Y1270D02*
X700Y1270D01*
X738Y1270D02*
X800Y1270D01*
X838Y1270D02*
X900Y1270D01*
X938Y1270D02*
X1000Y1270D01*
X1038Y1270D02*
X1100Y1270D01*
X1138Y1270D02*
X1200Y1270D01*
X239Y1269D02*
X300Y1269D01*
X339Y1269D02*
X400Y1269D01*
X439Y1269D02*
X500Y1269D01*
X539Y1269D02*
X600Y1269D01*
X639Y1269D02*
X700Y1269D01*
X739Y1269D02*
X800Y1269D01*
X839Y1269D02*
X900Y1269D01*
X939Y1269D02*
X999Y1269D01*
X1039Y1269D02*
X1099Y1269D01*
X1139Y1269D02*
X1199Y1269D01*
X240Y1268D02*
X299Y1268D01*
X340Y1268D02*
X399Y1268D01*
X440Y1268D02*
X499Y1268D01*
X540Y1268D02*
X599Y1268D01*
X640Y1268D02*
X699Y1268D01*
X740Y1268D02*
X799Y1268D01*
X840Y1268D02*
X899Y1268D01*
X940Y1268D02*
X999Y1268D01*
X1040Y1268D02*
X1099Y1268D01*
X1140Y1268D02*
X1199Y1268D01*
X241Y1267D02*
X298Y1267D01*
X341Y1267D02*
X398Y1267D01*
X441Y1267D02*
X498Y1267D01*
X541Y1267D02*
X598Y1267D01*
X641Y1267D02*
X698Y1267D01*
X741Y1267D02*
X798Y1267D01*
X841Y1267D02*
X898Y1267D01*
X941Y1267D02*
X998Y1267D01*
X1041Y1267D02*
X1098Y1267D01*
X1141Y1267D02*
X1198Y1267D01*
X242Y1266D02*
X297Y1266D01*
X342Y1266D02*
X397Y1266D01*
X442Y1266D02*
X497Y1266D01*
X542Y1266D02*
X597Y1266D01*
X642Y1266D02*
X697Y1266D01*
X742Y1266D02*
X797Y1266D01*
X842Y1266D02*
X897Y1266D01*
X942Y1266D02*
X997Y1266D01*
X1042Y1266D02*
X1097Y1266D01*
X1142Y1266D02*
X1197Y1266D01*
X243Y1265D02*
X296Y1265D01*
X343Y1265D02*
X396Y1265D01*
X443Y1265D02*
X496Y1265D01*
X543Y1265D02*
X596Y1265D01*
X643Y1265D02*
X696Y1265D01*
X743Y1265D02*
X796Y1265D01*
X843Y1265D02*
X896Y1265D01*
X943Y1265D02*
X996Y1265D01*
X1043Y1265D02*
X1096Y1265D01*
X1143Y1265D02*
X1196Y1265D01*
X244Y1264D02*
X295Y1264D01*
X344Y1264D02*
X395Y1264D01*
X444Y1264D02*
X495Y1264D01*
X544Y1264D02*
X595Y1264D01*
X644Y1264D02*
X695Y1264D01*
X744Y1264D02*
X795Y1264D01*
X844Y1264D02*
X895Y1264D01*
X944Y1264D02*
X995Y1264D01*
X1044Y1264D02*
X1095Y1264D01*
X1144Y1264D02*
X1195Y1264D01*
X245Y1263D02*
X294Y1263D01*
X345Y1263D02*
X394Y1263D01*
X445Y1263D02*
X494Y1263D01*
X545Y1263D02*
X594Y1263D01*
X645Y1263D02*
X694Y1263D01*
X745Y1263D02*
X794Y1263D01*
X845Y1263D02*
X894Y1263D01*
X945Y1263D02*
X994Y1263D01*
X1045Y1263D02*
X1094Y1263D01*
X1145Y1263D02*
X1193Y1263D01*
X247Y1262D02*
X292Y1262D01*
X347Y1262D02*
X392Y1262D01*
X447Y1262D02*
X492Y1262D01*
X546Y1262D02*
X592Y1262D01*
X646Y1262D02*
X692Y1262D01*
X746Y1262D02*
X792Y1262D01*
X846Y1262D02*
X892Y1262D01*
X946Y1262D02*
X992Y1262D01*
X1046Y1262D02*
X1092Y1262D01*
X1146Y1262D02*
X1192Y1262D01*
X248Y1261D02*
X291Y1261D01*
X348Y1261D02*
X391Y1261D01*
X448Y1261D02*
X491Y1261D01*
X548Y1261D02*
X591Y1261D01*
X648Y1261D02*
X691Y1261D01*
X748Y1261D02*
X791Y1261D01*
X848Y1261D02*
X891Y1261D01*
X948Y1261D02*
X991Y1261D01*
X1048Y1261D02*
X1091Y1261D01*
X1148Y1261D02*
X1191Y1261D01*
X249Y1260D02*
X290Y1260D01*
X349Y1260D02*
X390Y1260D01*
X449Y1260D02*
X490Y1260D01*
X549Y1260D02*
X590Y1260D01*
X649Y1260D02*
X690Y1260D01*
X749Y1260D02*
X789Y1260D01*
X849Y1260D02*
X889Y1260D01*
X949Y1260D02*
X989Y1260D01*
X1049Y1260D02*
X1089Y1260D01*
X1149Y1260D02*
X1189Y1260D01*
X251Y1259D02*
X288Y1259D01*
X351Y1259D02*
X388Y1259D01*
X451Y1259D02*
X488Y1259D01*
X551Y1259D02*
X588Y1259D01*
X651Y1259D02*
X688Y1259D01*
X751Y1259D02*
X788Y1259D01*
X851Y1259D02*
X888Y1259D01*
X951Y1259D02*
X988Y1259D01*
X1051Y1259D02*
X1088Y1259D01*
X1151Y1259D02*
X1188Y1259D01*
X253Y1258D02*
X286Y1258D01*
X353Y1258D02*
X386Y1258D01*
X453Y1258D02*
X486Y1258D01*
X553Y1258D02*
X586Y1258D01*
X653Y1258D02*
X686Y1258D01*
X753Y1258D02*
X786Y1258D01*
X853Y1258D02*
X886Y1258D01*
X953Y1258D02*
X986Y1258D01*
X1053Y1258D02*
X1086Y1258D01*
X1153Y1258D02*
X1186Y1258D01*
X255Y1257D02*
X284Y1257D01*
X355Y1257D02*
X384Y1257D01*
X455Y1257D02*
X484Y1257D01*
X555Y1257D02*
X584Y1257D01*
X655Y1257D02*
X684Y1257D01*
X755Y1257D02*
X784Y1257D01*
X855Y1257D02*
X884Y1257D01*
X955Y1257D02*
X984Y1257D01*
X1055Y1257D02*
X1084Y1257D01*
X1155Y1257D02*
X1184Y1257D01*
X257Y1256D02*
X282Y1256D01*
X357Y1256D02*
X382Y1256D01*
X457Y1256D02*
X482Y1256D01*
X557Y1256D02*
X582Y1256D01*
X657Y1256D02*
X682Y1256D01*
X757Y1256D02*
X782Y1256D01*
X857Y1256D02*
X882Y1256D01*
X957Y1256D02*
X982Y1256D01*
X1057Y1256D02*
X1082Y1256D01*
X1157Y1256D02*
X1182Y1256D01*
X260Y1255D02*
X279Y1255D01*
X360Y1255D02*
X379Y1255D01*
X460Y1255D02*
X479Y1255D01*
X560Y1255D02*
X579Y1255D01*
X660Y1255D02*
X679Y1255D01*
X760Y1255D02*
X779Y1255D01*
X860Y1255D02*
X879Y1255D01*
X960Y1255D02*
X979Y1255D01*
X1060Y1255D02*
X1079Y1255D01*
X1160Y1255D02*
X1179Y1255D01*
X265Y1254D02*
X274Y1254D01*
X365Y1254D02*
X374Y1254D01*
X465Y1254D02*
X474Y1254D01*
X565Y1254D02*
X574Y1254D01*
X665Y1254D02*
X674Y1254D01*
X765Y1254D02*
X774Y1254D01*
X865Y1254D02*
X874Y1254D01*
X965Y1254D02*
X974Y1254D01*
X1064Y1254D02*
X1074Y1254D01*
X1164Y1254D02*
X1174Y1254D01*
D02*
G04 End of Copper1*
M02*