G04 MADE WITH FRITZING*
G04 WWW.FRITZING.ORG*
G04 DOUBLE SIDED*
G04 HOLES PLATED*
G04 CONTOUR ON CENTER OF CONTOUR VECTOR*
%ASAXBY*%
%FSLAX23Y23*%
%MOIN*%
%OFA0B0*%
%SFA1.0B1.0*%
%ADD10C,0.060000*%
%ADD11C,0.078000*%
%ADD12C,0.075000*%
%ADD13C,0.066194*%
%ADD14C,0.066222*%
%ADD15R,0.078000X0.078000*%
%ADD16C,0.024000*%
%ADD17R,0.001000X0.001000*%
%LNCOPPER0*%
G90*
G70*
G54D10*
X713Y1280D03*
X613Y1280D03*
X513Y1280D03*
X413Y1280D03*
X313Y1280D03*
X913Y1280D03*
X813Y1280D03*
X1113Y1280D03*
X1013Y1280D03*
X1213Y1280D03*
G54D11*
X1713Y480D03*
X1713Y580D03*
X313Y580D03*
X313Y480D03*
X1713Y1080D03*
X1713Y980D03*
X313Y1080D03*
X313Y980D03*
G54D12*
X413Y580D03*
X813Y580D03*
X413Y1080D03*
X813Y1080D03*
X1413Y1080D03*
X1013Y1080D03*
X1213Y380D03*
X813Y380D03*
G54D13*
X1473Y80D03*
X1573Y80D03*
X1673Y80D03*
X1773Y80D03*
X1873Y80D03*
G54D14*
X1013Y1980D03*
X913Y1980D03*
X813Y1980D03*
X713Y1980D03*
X613Y1980D03*
X513Y1980D03*
X413Y1980D03*
X313Y1980D03*
X213Y1980D03*
X113Y1980D03*
X1873Y1980D03*
X1773Y1980D03*
X1673Y1980D03*
X1573Y1980D03*
X1473Y1980D03*
X1373Y1980D03*
X1273Y1980D03*
X1173Y1980D03*
G54D13*
X573Y80D03*
X473Y80D03*
X673Y80D03*
X773Y80D03*
X873Y80D03*
X973Y80D03*
X1073Y80D03*
X1173Y80D03*
X1373Y80D03*
G54D15*
X1713Y480D03*
X313Y580D03*
X1713Y1080D03*
X313Y1080D03*
G54D16*
X413Y1479D02*
X413Y1311D01*
D02*
X602Y1952D02*
X413Y1479D01*
D02*
X514Y1479D02*
X513Y1311D01*
D02*
X702Y1952D02*
X514Y1479D01*
D02*
X913Y1950D02*
X913Y1311D01*
D02*
X614Y1479D02*
X613Y1311D01*
D02*
X802Y1952D02*
X614Y1479D01*
D02*
X313Y1479D02*
X313Y1311D01*
D02*
X502Y1952D02*
X313Y1479D01*
D02*
X113Y480D02*
X283Y480D01*
D02*
X113Y980D02*
X113Y480D01*
D02*
X283Y980D02*
X113Y980D01*
D02*
X813Y279D02*
X313Y280D01*
D02*
X313Y280D02*
X313Y450D01*
D02*
X865Y109D02*
X813Y279D01*
D02*
X385Y580D02*
X344Y580D01*
D02*
X415Y679D02*
X414Y609D01*
D02*
X1373Y679D02*
X415Y679D01*
D02*
X1373Y111D02*
X1373Y679D01*
D02*
X385Y1080D02*
X344Y1080D01*
D02*
X415Y881D02*
X414Y1052D01*
D02*
X1473Y881D02*
X415Y881D01*
D02*
X1473Y111D02*
X1473Y881D01*
D02*
X1913Y980D02*
X1744Y980D01*
D02*
X1913Y1281D02*
X1913Y980D01*
D02*
X1245Y1280D02*
X1913Y1281D01*
D02*
X1713Y610D02*
X1713Y950D01*
D02*
X1566Y1080D02*
X1573Y111D01*
D02*
X1683Y1080D02*
X1566Y1080D01*
D02*
X1442Y1080D02*
X1566Y1080D01*
D02*
X1710Y450D02*
X1676Y110D01*
G54D17*
X309Y1321D02*
X317Y1321D01*
X409Y1321D02*
X417Y1321D01*
X509Y1321D02*
X517Y1321D01*
X609Y1321D02*
X617Y1321D01*
X709Y1321D02*
X717Y1321D01*
X808Y1321D02*
X817Y1321D01*
X908Y1321D02*
X917Y1321D01*
X1008Y1321D02*
X1017Y1321D01*
X1108Y1321D02*
X1117Y1321D01*
X1208Y1321D02*
X1217Y1321D01*
X304Y1320D02*
X322Y1320D01*
X404Y1320D02*
X422Y1320D01*
X504Y1320D02*
X522Y1320D01*
X604Y1320D02*
X622Y1320D01*
X704Y1320D02*
X722Y1320D01*
X804Y1320D02*
X822Y1320D01*
X904Y1320D02*
X922Y1320D01*
X1004Y1320D02*
X1022Y1320D01*
X1104Y1320D02*
X1122Y1320D01*
X1204Y1320D02*
X1221Y1320D01*
X301Y1319D02*
X325Y1319D01*
X401Y1319D02*
X425Y1319D01*
X501Y1319D02*
X525Y1319D01*
X601Y1319D02*
X625Y1319D01*
X701Y1319D02*
X725Y1319D01*
X801Y1319D02*
X825Y1319D01*
X901Y1319D02*
X925Y1319D01*
X1001Y1319D02*
X1025Y1319D01*
X1101Y1319D02*
X1125Y1319D01*
X1201Y1319D02*
X1225Y1319D01*
X298Y1318D02*
X327Y1318D01*
X398Y1318D02*
X427Y1318D01*
X498Y1318D02*
X527Y1318D01*
X598Y1318D02*
X627Y1318D01*
X698Y1318D02*
X727Y1318D01*
X798Y1318D02*
X827Y1318D01*
X898Y1318D02*
X927Y1318D01*
X998Y1318D02*
X1027Y1318D01*
X1098Y1318D02*
X1127Y1318D01*
X1198Y1318D02*
X1227Y1318D01*
X296Y1317D02*
X329Y1317D01*
X396Y1317D02*
X429Y1317D01*
X496Y1317D02*
X529Y1317D01*
X596Y1317D02*
X629Y1317D01*
X696Y1317D02*
X729Y1317D01*
X796Y1317D02*
X829Y1317D01*
X896Y1317D02*
X929Y1317D01*
X996Y1317D02*
X1029Y1317D01*
X1096Y1317D02*
X1129Y1317D01*
X1196Y1317D02*
X1229Y1317D01*
X294Y1316D02*
X331Y1316D01*
X394Y1316D02*
X431Y1316D01*
X494Y1316D02*
X531Y1316D01*
X594Y1316D02*
X631Y1316D01*
X694Y1316D02*
X731Y1316D01*
X794Y1316D02*
X831Y1316D01*
X894Y1316D02*
X931Y1316D01*
X994Y1316D02*
X1031Y1316D01*
X1094Y1316D02*
X1131Y1316D01*
X1194Y1316D02*
X1231Y1316D01*
X293Y1315D02*
X333Y1315D01*
X393Y1315D02*
X433Y1315D01*
X493Y1315D02*
X533Y1315D01*
X593Y1315D02*
X633Y1315D01*
X693Y1315D02*
X733Y1315D01*
X793Y1315D02*
X833Y1315D01*
X893Y1315D02*
X933Y1315D01*
X993Y1315D02*
X1033Y1315D01*
X1093Y1315D02*
X1133Y1315D01*
X1193Y1315D02*
X1233Y1315D01*
X291Y1314D02*
X334Y1314D01*
X391Y1314D02*
X434Y1314D01*
X491Y1314D02*
X534Y1314D01*
X591Y1314D02*
X634Y1314D01*
X691Y1314D02*
X734Y1314D01*
X791Y1314D02*
X834Y1314D01*
X891Y1314D02*
X934Y1314D01*
X991Y1314D02*
X1034Y1314D01*
X1091Y1314D02*
X1134Y1314D01*
X1191Y1314D02*
X1234Y1314D01*
X290Y1313D02*
X336Y1313D01*
X390Y1313D02*
X436Y1313D01*
X490Y1313D02*
X536Y1313D01*
X590Y1313D02*
X636Y1313D01*
X690Y1313D02*
X735Y1313D01*
X790Y1313D02*
X835Y1313D01*
X890Y1313D02*
X935Y1313D01*
X990Y1313D02*
X1035Y1313D01*
X1090Y1313D02*
X1135Y1313D01*
X1190Y1313D02*
X1235Y1313D01*
X289Y1312D02*
X337Y1312D01*
X389Y1312D02*
X437Y1312D01*
X489Y1312D02*
X537Y1312D01*
X589Y1312D02*
X637Y1312D01*
X689Y1312D02*
X737Y1312D01*
X789Y1312D02*
X837Y1312D01*
X889Y1312D02*
X937Y1312D01*
X989Y1312D02*
X1037Y1312D01*
X1089Y1312D02*
X1137Y1312D01*
X1189Y1312D02*
X1237Y1312D01*
X288Y1311D02*
X338Y1311D01*
X388Y1311D02*
X438Y1311D01*
X488Y1311D02*
X538Y1311D01*
X588Y1311D02*
X638Y1311D01*
X687Y1311D02*
X738Y1311D01*
X787Y1311D02*
X838Y1311D01*
X887Y1311D02*
X938Y1311D01*
X987Y1311D02*
X1038Y1311D01*
X1087Y1311D02*
X1138Y1311D01*
X1187Y1311D02*
X1238Y1311D01*
X286Y1310D02*
X339Y1310D01*
X386Y1310D02*
X439Y1310D01*
X486Y1310D02*
X539Y1310D01*
X586Y1310D02*
X639Y1310D01*
X686Y1310D02*
X739Y1310D01*
X786Y1310D02*
X839Y1310D01*
X886Y1310D02*
X939Y1310D01*
X986Y1310D02*
X1039Y1310D01*
X1086Y1310D02*
X1139Y1310D01*
X1186Y1310D02*
X1239Y1310D01*
X285Y1309D02*
X340Y1309D01*
X385Y1309D02*
X440Y1309D01*
X485Y1309D02*
X540Y1309D01*
X585Y1309D02*
X640Y1309D01*
X685Y1309D02*
X740Y1309D01*
X785Y1309D02*
X840Y1309D01*
X885Y1309D02*
X940Y1309D01*
X985Y1309D02*
X1040Y1309D01*
X1085Y1309D02*
X1140Y1309D01*
X1185Y1309D02*
X1240Y1309D01*
X285Y1308D02*
X341Y1308D01*
X384Y1308D02*
X441Y1308D01*
X484Y1308D02*
X541Y1308D01*
X584Y1308D02*
X641Y1308D01*
X684Y1308D02*
X741Y1308D01*
X784Y1308D02*
X841Y1308D01*
X884Y1308D02*
X941Y1308D01*
X984Y1308D02*
X1041Y1308D01*
X1084Y1308D02*
X1141Y1308D01*
X1184Y1308D02*
X1241Y1308D01*
X284Y1307D02*
X342Y1307D01*
X384Y1307D02*
X442Y1307D01*
X484Y1307D02*
X542Y1307D01*
X584Y1307D02*
X642Y1307D01*
X683Y1307D02*
X742Y1307D01*
X783Y1307D02*
X842Y1307D01*
X883Y1307D02*
X942Y1307D01*
X983Y1307D02*
X1042Y1307D01*
X1083Y1307D02*
X1142Y1307D01*
X1183Y1307D02*
X1242Y1307D01*
X283Y1306D02*
X343Y1306D01*
X383Y1306D02*
X443Y1306D01*
X483Y1306D02*
X543Y1306D01*
X583Y1306D02*
X643Y1306D01*
X683Y1306D02*
X743Y1306D01*
X783Y1306D02*
X843Y1306D01*
X883Y1306D02*
X943Y1306D01*
X983Y1306D02*
X1043Y1306D01*
X1083Y1306D02*
X1143Y1306D01*
X1182Y1306D02*
X1243Y1306D01*
X282Y1305D02*
X344Y1305D01*
X382Y1305D02*
X444Y1305D01*
X482Y1305D02*
X544Y1305D01*
X582Y1305D02*
X644Y1305D01*
X682Y1305D02*
X744Y1305D01*
X782Y1305D02*
X844Y1305D01*
X882Y1305D02*
X944Y1305D01*
X982Y1305D02*
X1043Y1305D01*
X1082Y1305D02*
X1143Y1305D01*
X1182Y1305D02*
X1243Y1305D01*
X281Y1304D02*
X344Y1304D01*
X381Y1304D02*
X444Y1304D01*
X481Y1304D02*
X544Y1304D01*
X581Y1304D02*
X644Y1304D01*
X681Y1304D02*
X744Y1304D01*
X781Y1304D02*
X844Y1304D01*
X881Y1304D02*
X944Y1304D01*
X981Y1304D02*
X1044Y1304D01*
X1081Y1304D02*
X1144Y1304D01*
X1181Y1304D02*
X1244Y1304D01*
X280Y1303D02*
X345Y1303D01*
X380Y1303D02*
X445Y1303D01*
X480Y1303D02*
X545Y1303D01*
X580Y1303D02*
X645Y1303D01*
X680Y1303D02*
X745Y1303D01*
X780Y1303D02*
X845Y1303D01*
X880Y1303D02*
X945Y1303D01*
X980Y1303D02*
X1045Y1303D01*
X1080Y1303D02*
X1145Y1303D01*
X1180Y1303D02*
X1245Y1303D01*
X280Y1302D02*
X346Y1302D01*
X380Y1302D02*
X446Y1302D01*
X480Y1302D02*
X546Y1302D01*
X580Y1302D02*
X646Y1302D01*
X680Y1302D02*
X746Y1302D01*
X780Y1302D02*
X846Y1302D01*
X880Y1302D02*
X946Y1302D01*
X980Y1302D02*
X1046Y1302D01*
X1080Y1302D02*
X1146Y1302D01*
X1180Y1302D02*
X1246Y1302D01*
X279Y1301D02*
X308Y1301D01*
X318Y1301D02*
X346Y1301D01*
X379Y1301D02*
X408Y1301D01*
X418Y1301D02*
X446Y1301D01*
X479Y1301D02*
X508Y1301D01*
X518Y1301D02*
X546Y1301D01*
X579Y1301D02*
X608Y1301D01*
X618Y1301D02*
X646Y1301D01*
X679Y1301D02*
X708Y1301D01*
X718Y1301D02*
X746Y1301D01*
X779Y1301D02*
X808Y1301D01*
X818Y1301D02*
X846Y1301D01*
X879Y1301D02*
X908Y1301D01*
X918Y1301D02*
X946Y1301D01*
X979Y1301D02*
X1008Y1301D01*
X1018Y1301D02*
X1046Y1301D01*
X1079Y1301D02*
X1108Y1301D01*
X1117Y1301D02*
X1146Y1301D01*
X1179Y1301D02*
X1208Y1301D01*
X1217Y1301D02*
X1246Y1301D01*
X279Y1300D02*
X304Y1300D01*
X322Y1300D02*
X347Y1300D01*
X379Y1300D02*
X404Y1300D01*
X422Y1300D02*
X447Y1300D01*
X478Y1300D02*
X504Y1300D01*
X521Y1300D02*
X547Y1300D01*
X578Y1300D02*
X604Y1300D01*
X621Y1300D02*
X647Y1300D01*
X678Y1300D02*
X704Y1300D01*
X721Y1300D02*
X747Y1300D01*
X778Y1300D02*
X804Y1300D01*
X821Y1300D02*
X847Y1300D01*
X878Y1300D02*
X904Y1300D01*
X921Y1300D02*
X947Y1300D01*
X978Y1300D02*
X1004Y1300D01*
X1021Y1300D02*
X1047Y1300D01*
X1078Y1300D02*
X1104Y1300D01*
X1121Y1300D02*
X1147Y1300D01*
X1178Y1300D02*
X1204Y1300D01*
X1221Y1300D02*
X1247Y1300D01*
X278Y1299D02*
X302Y1299D01*
X324Y1299D02*
X348Y1299D01*
X378Y1299D02*
X402Y1299D01*
X424Y1299D02*
X448Y1299D01*
X478Y1299D02*
X502Y1299D01*
X524Y1299D02*
X548Y1299D01*
X578Y1299D02*
X602Y1299D01*
X624Y1299D02*
X648Y1299D01*
X678Y1299D02*
X702Y1299D01*
X724Y1299D02*
X748Y1299D01*
X778Y1299D02*
X802Y1299D01*
X824Y1299D02*
X847Y1299D01*
X878Y1299D02*
X902Y1299D01*
X924Y1299D02*
X947Y1299D01*
X978Y1299D02*
X1002Y1299D01*
X1024Y1299D02*
X1047Y1299D01*
X1078Y1299D02*
X1102Y1299D01*
X1123Y1299D02*
X1147Y1299D01*
X1178Y1299D02*
X1202Y1299D01*
X1223Y1299D02*
X1247Y1299D01*
X277Y1298D02*
X300Y1298D01*
X325Y1298D02*
X348Y1298D01*
X377Y1298D02*
X400Y1298D01*
X425Y1298D02*
X448Y1298D01*
X477Y1298D02*
X500Y1298D01*
X525Y1298D02*
X548Y1298D01*
X577Y1298D02*
X600Y1298D01*
X625Y1298D02*
X648Y1298D01*
X677Y1298D02*
X700Y1298D01*
X725Y1298D02*
X748Y1298D01*
X777Y1298D02*
X800Y1298D01*
X825Y1298D02*
X848Y1298D01*
X877Y1298D02*
X900Y1298D01*
X925Y1298D02*
X948Y1298D01*
X977Y1298D02*
X1000Y1298D01*
X1025Y1298D02*
X1048Y1298D01*
X1077Y1298D02*
X1100Y1298D01*
X1125Y1298D02*
X1148Y1298D01*
X1177Y1298D02*
X1200Y1298D01*
X1225Y1298D02*
X1248Y1298D01*
X277Y1297D02*
X299Y1297D01*
X327Y1297D02*
X349Y1297D01*
X377Y1297D02*
X399Y1297D01*
X427Y1297D02*
X449Y1297D01*
X477Y1297D02*
X499Y1297D01*
X527Y1297D02*
X549Y1297D01*
X577Y1297D02*
X599Y1297D01*
X627Y1297D02*
X649Y1297D01*
X677Y1297D02*
X699Y1297D01*
X727Y1297D02*
X749Y1297D01*
X777Y1297D02*
X799Y1297D01*
X827Y1297D02*
X849Y1297D01*
X877Y1297D02*
X899Y1297D01*
X927Y1297D02*
X948Y1297D01*
X977Y1297D02*
X999Y1297D01*
X1027Y1297D02*
X1048Y1297D01*
X1077Y1297D02*
X1099Y1297D01*
X1127Y1297D02*
X1148Y1297D01*
X1177Y1297D02*
X1199Y1297D01*
X1227Y1297D02*
X1248Y1297D01*
X277Y1296D02*
X298Y1296D01*
X328Y1296D02*
X349Y1296D01*
X377Y1296D02*
X398Y1296D01*
X428Y1296D02*
X449Y1296D01*
X476Y1296D02*
X498Y1296D01*
X528Y1296D02*
X549Y1296D01*
X576Y1296D02*
X598Y1296D01*
X628Y1296D02*
X649Y1296D01*
X676Y1296D02*
X698Y1296D01*
X728Y1296D02*
X749Y1296D01*
X776Y1296D02*
X798Y1296D01*
X828Y1296D02*
X849Y1296D01*
X876Y1296D02*
X898Y1296D01*
X928Y1296D02*
X949Y1296D01*
X976Y1296D02*
X998Y1296D01*
X1028Y1296D02*
X1049Y1296D01*
X1076Y1296D02*
X1097Y1296D01*
X1128Y1296D02*
X1149Y1296D01*
X1176Y1296D02*
X1197Y1296D01*
X1228Y1296D02*
X1249Y1296D01*
X276Y1295D02*
X297Y1295D01*
X329Y1295D02*
X350Y1295D01*
X376Y1295D02*
X397Y1295D01*
X429Y1295D02*
X449Y1295D01*
X476Y1295D02*
X497Y1295D01*
X529Y1295D02*
X549Y1295D01*
X576Y1295D02*
X597Y1295D01*
X629Y1295D02*
X649Y1295D01*
X676Y1295D02*
X697Y1295D01*
X729Y1295D02*
X749Y1295D01*
X776Y1295D02*
X797Y1295D01*
X829Y1295D02*
X849Y1295D01*
X876Y1295D02*
X897Y1295D01*
X929Y1295D02*
X949Y1295D01*
X976Y1295D02*
X997Y1295D01*
X1029Y1295D02*
X1049Y1295D01*
X1076Y1295D02*
X1097Y1295D01*
X1129Y1295D02*
X1149Y1295D01*
X1176Y1295D02*
X1197Y1295D01*
X1229Y1295D02*
X1249Y1295D01*
X276Y1294D02*
X296Y1294D01*
X330Y1294D02*
X350Y1294D01*
X376Y1294D02*
X396Y1294D01*
X430Y1294D02*
X450Y1294D01*
X476Y1294D02*
X496Y1294D01*
X530Y1294D02*
X550Y1294D01*
X576Y1294D02*
X596Y1294D01*
X630Y1294D02*
X650Y1294D01*
X676Y1294D02*
X696Y1294D01*
X729Y1294D02*
X750Y1294D01*
X776Y1294D02*
X796Y1294D01*
X829Y1294D02*
X850Y1294D01*
X876Y1294D02*
X896Y1294D01*
X929Y1294D02*
X950Y1294D01*
X976Y1294D02*
X996Y1294D01*
X1029Y1294D02*
X1050Y1294D01*
X1076Y1294D02*
X1096Y1294D01*
X1129Y1294D02*
X1150Y1294D01*
X1176Y1294D02*
X1196Y1294D01*
X1229Y1294D02*
X1250Y1294D01*
X275Y1293D02*
X295Y1293D01*
X330Y1293D02*
X350Y1293D01*
X375Y1293D02*
X395Y1293D01*
X430Y1293D02*
X450Y1293D01*
X475Y1293D02*
X495Y1293D01*
X530Y1293D02*
X550Y1293D01*
X575Y1293D02*
X595Y1293D01*
X630Y1293D02*
X650Y1293D01*
X675Y1293D02*
X695Y1293D01*
X730Y1293D02*
X750Y1293D01*
X775Y1293D02*
X795Y1293D01*
X830Y1293D02*
X850Y1293D01*
X875Y1293D02*
X895Y1293D01*
X930Y1293D02*
X950Y1293D01*
X975Y1293D02*
X995Y1293D01*
X1030Y1293D02*
X1050Y1293D01*
X1075Y1293D02*
X1095Y1293D01*
X1130Y1293D02*
X1150Y1293D01*
X1175Y1293D02*
X1195Y1293D01*
X1230Y1293D02*
X1250Y1293D01*
X275Y1292D02*
X295Y1292D01*
X331Y1292D02*
X351Y1292D01*
X375Y1292D02*
X395Y1292D01*
X431Y1292D02*
X451Y1292D01*
X475Y1292D02*
X495Y1292D01*
X531Y1292D02*
X551Y1292D01*
X575Y1292D02*
X595Y1292D01*
X631Y1292D02*
X651Y1292D01*
X675Y1292D02*
X695Y1292D01*
X731Y1292D02*
X750Y1292D01*
X775Y1292D02*
X795Y1292D01*
X831Y1292D02*
X850Y1292D01*
X875Y1292D02*
X895Y1292D01*
X931Y1292D02*
X950Y1292D01*
X975Y1292D02*
X995Y1292D01*
X1031Y1292D02*
X1050Y1292D01*
X1075Y1292D02*
X1095Y1292D01*
X1131Y1292D02*
X1150Y1292D01*
X1175Y1292D02*
X1195Y1292D01*
X1231Y1292D02*
X1250Y1292D01*
X275Y1291D02*
X294Y1291D01*
X331Y1291D02*
X351Y1291D01*
X375Y1291D02*
X394Y1291D01*
X431Y1291D02*
X451Y1291D01*
X475Y1291D02*
X494Y1291D01*
X531Y1291D02*
X551Y1291D01*
X575Y1291D02*
X594Y1291D01*
X631Y1291D02*
X651Y1291D01*
X675Y1291D02*
X694Y1291D01*
X731Y1291D02*
X751Y1291D01*
X775Y1291D02*
X794Y1291D01*
X831Y1291D02*
X851Y1291D01*
X875Y1291D02*
X894Y1291D01*
X931Y1291D02*
X951Y1291D01*
X975Y1291D02*
X994Y1291D01*
X1031Y1291D02*
X1051Y1291D01*
X1075Y1291D02*
X1094Y1291D01*
X1131Y1291D02*
X1151Y1291D01*
X1175Y1291D02*
X1194Y1291D01*
X1231Y1291D02*
X1251Y1291D01*
X274Y1290D02*
X294Y1290D01*
X332Y1290D02*
X351Y1290D01*
X374Y1290D02*
X394Y1290D01*
X432Y1290D02*
X451Y1290D01*
X474Y1290D02*
X494Y1290D01*
X532Y1290D02*
X551Y1290D01*
X574Y1290D02*
X594Y1290D01*
X632Y1290D02*
X651Y1290D01*
X674Y1290D02*
X694Y1290D01*
X732Y1290D02*
X751Y1290D01*
X774Y1290D02*
X794Y1290D01*
X832Y1290D02*
X851Y1290D01*
X874Y1290D02*
X894Y1290D01*
X932Y1290D02*
X951Y1290D01*
X974Y1290D02*
X994Y1290D01*
X1032Y1290D02*
X1051Y1290D01*
X1074Y1290D02*
X1094Y1290D01*
X1132Y1290D02*
X1151Y1290D01*
X1174Y1290D02*
X1194Y1290D01*
X1232Y1290D02*
X1251Y1290D01*
X274Y1289D02*
X293Y1289D01*
X332Y1289D02*
X351Y1289D01*
X374Y1289D02*
X393Y1289D01*
X432Y1289D02*
X451Y1289D01*
X474Y1289D02*
X493Y1289D01*
X532Y1289D02*
X551Y1289D01*
X574Y1289D02*
X593Y1289D01*
X632Y1289D02*
X651Y1289D01*
X674Y1289D02*
X693Y1289D01*
X732Y1289D02*
X751Y1289D01*
X774Y1289D02*
X793Y1289D01*
X832Y1289D02*
X851Y1289D01*
X874Y1289D02*
X893Y1289D01*
X932Y1289D02*
X951Y1289D01*
X974Y1289D02*
X993Y1289D01*
X1032Y1289D02*
X1051Y1289D01*
X1074Y1289D02*
X1093Y1289D01*
X1132Y1289D02*
X1151Y1289D01*
X1174Y1289D02*
X1193Y1289D01*
X1232Y1289D02*
X1251Y1289D01*
X274Y1288D02*
X293Y1288D01*
X332Y1288D02*
X352Y1288D01*
X374Y1288D02*
X393Y1288D01*
X432Y1288D02*
X452Y1288D01*
X474Y1288D02*
X493Y1288D01*
X532Y1288D02*
X552Y1288D01*
X574Y1288D02*
X593Y1288D01*
X632Y1288D02*
X652Y1288D01*
X674Y1288D02*
X693Y1288D01*
X732Y1288D02*
X752Y1288D01*
X774Y1288D02*
X793Y1288D01*
X832Y1288D02*
X851Y1288D01*
X874Y1288D02*
X893Y1288D01*
X932Y1288D02*
X951Y1288D01*
X974Y1288D02*
X993Y1288D01*
X1032Y1288D02*
X1051Y1288D01*
X1074Y1288D02*
X1093Y1288D01*
X1132Y1288D02*
X1151Y1288D01*
X1174Y1288D02*
X1193Y1288D01*
X1232Y1288D02*
X1251Y1288D01*
X274Y1287D02*
X293Y1287D01*
X333Y1287D02*
X352Y1287D01*
X374Y1287D02*
X393Y1287D01*
X433Y1287D02*
X452Y1287D01*
X474Y1287D02*
X493Y1287D01*
X533Y1287D02*
X552Y1287D01*
X574Y1287D02*
X593Y1287D01*
X633Y1287D02*
X652Y1287D01*
X674Y1287D02*
X693Y1287D01*
X733Y1287D02*
X752Y1287D01*
X774Y1287D02*
X793Y1287D01*
X833Y1287D02*
X852Y1287D01*
X874Y1287D02*
X893Y1287D01*
X932Y1287D02*
X952Y1287D01*
X974Y1287D02*
X993Y1287D01*
X1032Y1287D02*
X1052Y1287D01*
X1074Y1287D02*
X1093Y1287D01*
X1132Y1287D02*
X1152Y1287D01*
X1174Y1287D02*
X1193Y1287D01*
X1232Y1287D02*
X1252Y1287D01*
X274Y1286D02*
X293Y1286D01*
X333Y1286D02*
X352Y1286D01*
X374Y1286D02*
X393Y1286D01*
X433Y1286D02*
X452Y1286D01*
X474Y1286D02*
X493Y1286D01*
X533Y1286D02*
X552Y1286D01*
X574Y1286D02*
X593Y1286D01*
X633Y1286D02*
X652Y1286D01*
X674Y1286D02*
X693Y1286D01*
X733Y1286D02*
X752Y1286D01*
X774Y1286D02*
X793Y1286D01*
X833Y1286D02*
X852Y1286D01*
X874Y1286D02*
X893Y1286D01*
X933Y1286D02*
X952Y1286D01*
X973Y1286D02*
X993Y1286D01*
X1033Y1286D02*
X1052Y1286D01*
X1073Y1286D02*
X1093Y1286D01*
X1133Y1286D02*
X1152Y1286D01*
X1173Y1286D02*
X1193Y1286D01*
X1233Y1286D02*
X1252Y1286D01*
X274Y1285D02*
X293Y1285D01*
X333Y1285D02*
X352Y1285D01*
X374Y1285D02*
X393Y1285D01*
X433Y1285D02*
X452Y1285D01*
X473Y1285D02*
X493Y1285D01*
X533Y1285D02*
X552Y1285D01*
X573Y1285D02*
X593Y1285D01*
X633Y1285D02*
X652Y1285D01*
X673Y1285D02*
X693Y1285D01*
X733Y1285D02*
X752Y1285D01*
X773Y1285D02*
X792Y1285D01*
X833Y1285D02*
X852Y1285D01*
X873Y1285D02*
X892Y1285D01*
X933Y1285D02*
X952Y1285D01*
X973Y1285D02*
X992Y1285D01*
X1033Y1285D02*
X1052Y1285D01*
X1073Y1285D02*
X1092Y1285D01*
X1133Y1285D02*
X1152Y1285D01*
X1173Y1285D02*
X1192Y1285D01*
X1233Y1285D02*
X1252Y1285D01*
X273Y1284D02*
X293Y1284D01*
X333Y1284D02*
X352Y1284D01*
X373Y1284D02*
X393Y1284D01*
X433Y1284D02*
X452Y1284D01*
X473Y1284D02*
X492Y1284D01*
X533Y1284D02*
X552Y1284D01*
X573Y1284D02*
X592Y1284D01*
X633Y1284D02*
X652Y1284D01*
X673Y1284D02*
X692Y1284D01*
X733Y1284D02*
X752Y1284D01*
X773Y1284D02*
X792Y1284D01*
X833Y1284D02*
X852Y1284D01*
X873Y1284D02*
X892Y1284D01*
X933Y1284D02*
X952Y1284D01*
X973Y1284D02*
X992Y1284D01*
X1033Y1284D02*
X1052Y1284D01*
X1073Y1284D02*
X1092Y1284D01*
X1133Y1284D02*
X1152Y1284D01*
X1173Y1284D02*
X1192Y1284D01*
X1233Y1284D02*
X1252Y1284D01*
X273Y1283D02*
X292Y1283D01*
X333Y1283D02*
X352Y1283D01*
X373Y1283D02*
X392Y1283D01*
X433Y1283D02*
X452Y1283D01*
X473Y1283D02*
X492Y1283D01*
X533Y1283D02*
X552Y1283D01*
X573Y1283D02*
X592Y1283D01*
X633Y1283D02*
X652Y1283D01*
X673Y1283D02*
X692Y1283D01*
X733Y1283D02*
X752Y1283D01*
X773Y1283D02*
X792Y1283D01*
X833Y1283D02*
X852Y1283D01*
X873Y1283D02*
X892Y1283D01*
X933Y1283D02*
X952Y1283D01*
X973Y1283D02*
X992Y1283D01*
X1033Y1283D02*
X1052Y1283D01*
X1073Y1283D02*
X1092Y1283D01*
X1133Y1283D02*
X1152Y1283D01*
X1173Y1283D02*
X1192Y1283D01*
X1233Y1283D02*
X1252Y1283D01*
X273Y1282D02*
X292Y1282D01*
X333Y1282D02*
X352Y1282D01*
X373Y1282D02*
X392Y1282D01*
X433Y1282D02*
X452Y1282D01*
X473Y1282D02*
X492Y1282D01*
X533Y1282D02*
X552Y1282D01*
X573Y1282D02*
X592Y1282D01*
X633Y1282D02*
X652Y1282D01*
X673Y1282D02*
X692Y1282D01*
X733Y1282D02*
X752Y1282D01*
X773Y1282D02*
X792Y1282D01*
X833Y1282D02*
X852Y1282D01*
X873Y1282D02*
X892Y1282D01*
X933Y1282D02*
X952Y1282D01*
X973Y1282D02*
X992Y1282D01*
X1033Y1282D02*
X1052Y1282D01*
X1073Y1282D02*
X1092Y1282D01*
X1133Y1282D02*
X1152Y1282D01*
X1173Y1282D02*
X1192Y1282D01*
X1233Y1282D02*
X1252Y1282D01*
X273Y1281D02*
X292Y1281D01*
X333Y1281D02*
X352Y1281D01*
X373Y1281D02*
X392Y1281D01*
X433Y1281D02*
X452Y1281D01*
X473Y1281D02*
X492Y1281D01*
X533Y1281D02*
X552Y1281D01*
X573Y1281D02*
X592Y1281D01*
X633Y1281D02*
X652Y1281D01*
X673Y1281D02*
X692Y1281D01*
X733Y1281D02*
X752Y1281D01*
X773Y1281D02*
X792Y1281D01*
X833Y1281D02*
X852Y1281D01*
X873Y1281D02*
X892Y1281D01*
X933Y1281D02*
X952Y1281D01*
X973Y1281D02*
X992Y1281D01*
X1033Y1281D02*
X1052Y1281D01*
X1073Y1281D02*
X1092Y1281D01*
X1133Y1281D02*
X1152Y1281D01*
X1173Y1281D02*
X1192Y1281D01*
X1233Y1281D02*
X1252Y1281D01*
X273Y1280D02*
X292Y1280D01*
X333Y1280D02*
X352Y1280D01*
X373Y1280D02*
X392Y1280D01*
X433Y1280D02*
X452Y1280D01*
X473Y1280D02*
X492Y1280D01*
X533Y1280D02*
X552Y1280D01*
X573Y1280D02*
X592Y1280D01*
X633Y1280D02*
X652Y1280D01*
X673Y1280D02*
X692Y1280D01*
X733Y1280D02*
X752Y1280D01*
X773Y1280D02*
X792Y1280D01*
X833Y1280D02*
X852Y1280D01*
X873Y1280D02*
X892Y1280D01*
X933Y1280D02*
X952Y1280D01*
X973Y1280D02*
X992Y1280D01*
X1033Y1280D02*
X1052Y1280D01*
X1073Y1280D02*
X1092Y1280D01*
X1133Y1280D02*
X1152Y1280D01*
X1173Y1280D02*
X1192Y1280D01*
X1233Y1280D02*
X1252Y1280D01*
X273Y1279D02*
X293Y1279D01*
X333Y1279D02*
X352Y1279D01*
X373Y1279D02*
X392Y1279D01*
X433Y1279D02*
X452Y1279D01*
X473Y1279D02*
X492Y1279D01*
X533Y1279D02*
X552Y1279D01*
X573Y1279D02*
X592Y1279D01*
X633Y1279D02*
X652Y1279D01*
X673Y1279D02*
X692Y1279D01*
X733Y1279D02*
X752Y1279D01*
X773Y1279D02*
X792Y1279D01*
X833Y1279D02*
X852Y1279D01*
X873Y1279D02*
X892Y1279D01*
X933Y1279D02*
X952Y1279D01*
X973Y1279D02*
X992Y1279D01*
X1033Y1279D02*
X1052Y1279D01*
X1073Y1279D02*
X1092Y1279D01*
X1133Y1279D02*
X1152Y1279D01*
X1173Y1279D02*
X1192Y1279D01*
X1233Y1279D02*
X1252Y1279D01*
X274Y1278D02*
X293Y1278D01*
X333Y1278D02*
X352Y1278D01*
X373Y1278D02*
X393Y1278D01*
X433Y1278D02*
X452Y1278D01*
X473Y1278D02*
X493Y1278D01*
X533Y1278D02*
X552Y1278D01*
X573Y1278D02*
X593Y1278D01*
X633Y1278D02*
X652Y1278D01*
X673Y1278D02*
X692Y1278D01*
X733Y1278D02*
X752Y1278D01*
X773Y1278D02*
X792Y1278D01*
X833Y1278D02*
X852Y1278D01*
X873Y1278D02*
X892Y1278D01*
X933Y1278D02*
X952Y1278D01*
X973Y1278D02*
X992Y1278D01*
X1033Y1278D02*
X1052Y1278D01*
X1073Y1278D02*
X1092Y1278D01*
X1133Y1278D02*
X1152Y1278D01*
X1173Y1278D02*
X1192Y1278D01*
X1233Y1278D02*
X1252Y1278D01*
X274Y1277D02*
X293Y1277D01*
X333Y1277D02*
X352Y1277D01*
X374Y1277D02*
X393Y1277D01*
X433Y1277D02*
X452Y1277D01*
X474Y1277D02*
X493Y1277D01*
X533Y1277D02*
X552Y1277D01*
X574Y1277D02*
X593Y1277D01*
X633Y1277D02*
X652Y1277D01*
X674Y1277D02*
X693Y1277D01*
X733Y1277D02*
X752Y1277D01*
X774Y1277D02*
X793Y1277D01*
X833Y1277D02*
X852Y1277D01*
X873Y1277D02*
X893Y1277D01*
X933Y1277D02*
X952Y1277D01*
X973Y1277D02*
X992Y1277D01*
X1033Y1277D02*
X1052Y1277D01*
X1073Y1277D02*
X1092Y1277D01*
X1133Y1277D02*
X1152Y1277D01*
X1173Y1277D02*
X1192Y1277D01*
X1233Y1277D02*
X1252Y1277D01*
X274Y1276D02*
X293Y1276D01*
X333Y1276D02*
X352Y1276D01*
X374Y1276D02*
X393Y1276D01*
X433Y1276D02*
X452Y1276D01*
X474Y1276D02*
X493Y1276D01*
X533Y1276D02*
X552Y1276D01*
X574Y1276D02*
X593Y1276D01*
X633Y1276D02*
X652Y1276D01*
X674Y1276D02*
X693Y1276D01*
X733Y1276D02*
X752Y1276D01*
X774Y1276D02*
X793Y1276D01*
X833Y1276D02*
X852Y1276D01*
X874Y1276D02*
X893Y1276D01*
X933Y1276D02*
X952Y1276D01*
X974Y1276D02*
X993Y1276D01*
X1033Y1276D02*
X1052Y1276D01*
X1074Y1276D02*
X1093Y1276D01*
X1133Y1276D02*
X1152Y1276D01*
X1174Y1276D02*
X1193Y1276D01*
X1232Y1276D02*
X1252Y1276D01*
X274Y1275D02*
X293Y1275D01*
X332Y1275D02*
X352Y1275D01*
X374Y1275D02*
X393Y1275D01*
X432Y1275D02*
X452Y1275D01*
X474Y1275D02*
X493Y1275D01*
X532Y1275D02*
X552Y1275D01*
X574Y1275D02*
X593Y1275D01*
X632Y1275D02*
X652Y1275D01*
X674Y1275D02*
X693Y1275D01*
X732Y1275D02*
X752Y1275D01*
X774Y1275D02*
X793Y1275D01*
X832Y1275D02*
X852Y1275D01*
X874Y1275D02*
X893Y1275D01*
X932Y1275D02*
X952Y1275D01*
X974Y1275D02*
X993Y1275D01*
X1032Y1275D02*
X1051Y1275D01*
X1074Y1275D02*
X1093Y1275D01*
X1132Y1275D02*
X1151Y1275D01*
X1174Y1275D02*
X1193Y1275D01*
X1232Y1275D02*
X1251Y1275D01*
X274Y1274D02*
X293Y1274D01*
X332Y1274D02*
X351Y1274D01*
X374Y1274D02*
X393Y1274D01*
X432Y1274D02*
X451Y1274D01*
X474Y1274D02*
X493Y1274D01*
X532Y1274D02*
X551Y1274D01*
X574Y1274D02*
X593Y1274D01*
X632Y1274D02*
X651Y1274D01*
X674Y1274D02*
X693Y1274D01*
X732Y1274D02*
X751Y1274D01*
X774Y1274D02*
X793Y1274D01*
X832Y1274D02*
X851Y1274D01*
X874Y1274D02*
X893Y1274D01*
X932Y1274D02*
X951Y1274D01*
X974Y1274D02*
X993Y1274D01*
X1032Y1274D02*
X1051Y1274D01*
X1074Y1274D02*
X1093Y1274D01*
X1132Y1274D02*
X1151Y1274D01*
X1174Y1274D02*
X1193Y1274D01*
X1232Y1274D02*
X1251Y1274D01*
X274Y1273D02*
X294Y1273D01*
X332Y1273D02*
X351Y1273D01*
X374Y1273D02*
X394Y1273D01*
X432Y1273D02*
X451Y1273D01*
X474Y1273D02*
X494Y1273D01*
X532Y1273D02*
X551Y1273D01*
X574Y1273D02*
X594Y1273D01*
X632Y1273D02*
X651Y1273D01*
X674Y1273D02*
X694Y1273D01*
X732Y1273D02*
X751Y1273D01*
X774Y1273D02*
X794Y1273D01*
X832Y1273D02*
X851Y1273D01*
X874Y1273D02*
X894Y1273D01*
X932Y1273D02*
X951Y1273D01*
X974Y1273D02*
X994Y1273D01*
X1032Y1273D02*
X1051Y1273D01*
X1074Y1273D02*
X1094Y1273D01*
X1132Y1273D02*
X1151Y1273D01*
X1174Y1273D02*
X1193Y1273D01*
X1232Y1273D02*
X1251Y1273D01*
X275Y1272D02*
X294Y1272D01*
X331Y1272D02*
X351Y1272D01*
X375Y1272D02*
X394Y1272D01*
X431Y1272D02*
X451Y1272D01*
X475Y1272D02*
X494Y1272D01*
X531Y1272D02*
X551Y1272D01*
X575Y1272D02*
X594Y1272D01*
X631Y1272D02*
X651Y1272D01*
X675Y1272D02*
X694Y1272D01*
X731Y1272D02*
X751Y1272D01*
X775Y1272D02*
X794Y1272D01*
X831Y1272D02*
X851Y1272D01*
X875Y1272D02*
X894Y1272D01*
X931Y1272D02*
X951Y1272D01*
X974Y1272D02*
X994Y1272D01*
X1031Y1272D02*
X1051Y1272D01*
X1074Y1272D02*
X1094Y1272D01*
X1131Y1272D02*
X1151Y1272D01*
X1174Y1272D02*
X1194Y1272D01*
X1231Y1272D02*
X1251Y1272D01*
X275Y1271D02*
X295Y1271D01*
X331Y1271D02*
X351Y1271D01*
X375Y1271D02*
X395Y1271D01*
X431Y1271D02*
X451Y1271D01*
X475Y1271D02*
X495Y1271D01*
X531Y1271D02*
X551Y1271D01*
X575Y1271D02*
X595Y1271D01*
X631Y1271D02*
X651Y1271D01*
X675Y1271D02*
X695Y1271D01*
X731Y1271D02*
X751Y1271D01*
X775Y1271D02*
X795Y1271D01*
X831Y1271D02*
X851Y1271D01*
X875Y1271D02*
X895Y1271D01*
X931Y1271D02*
X951Y1271D01*
X975Y1271D02*
X994Y1271D01*
X1031Y1271D02*
X1050Y1271D01*
X1075Y1271D02*
X1094Y1271D01*
X1131Y1271D02*
X1150Y1271D01*
X1175Y1271D02*
X1194Y1271D01*
X1231Y1271D02*
X1250Y1271D01*
X275Y1270D02*
X295Y1270D01*
X330Y1270D02*
X350Y1270D01*
X375Y1270D02*
X395Y1270D01*
X430Y1270D02*
X450Y1270D01*
X475Y1270D02*
X495Y1270D01*
X530Y1270D02*
X550Y1270D01*
X575Y1270D02*
X595Y1270D01*
X630Y1270D02*
X650Y1270D01*
X675Y1270D02*
X695Y1270D01*
X730Y1270D02*
X750Y1270D01*
X775Y1270D02*
X795Y1270D01*
X830Y1270D02*
X850Y1270D01*
X875Y1270D02*
X895Y1270D01*
X930Y1270D02*
X950Y1270D01*
X975Y1270D02*
X995Y1270D01*
X1030Y1270D02*
X1050Y1270D01*
X1075Y1270D02*
X1095Y1270D01*
X1130Y1270D02*
X1150Y1270D01*
X1175Y1270D02*
X1195Y1270D01*
X1230Y1270D02*
X1250Y1270D01*
X276Y1269D02*
X296Y1269D01*
X330Y1269D02*
X350Y1269D01*
X376Y1269D02*
X396Y1269D01*
X430Y1269D02*
X450Y1269D01*
X476Y1269D02*
X496Y1269D01*
X530Y1269D02*
X550Y1269D01*
X576Y1269D02*
X596Y1269D01*
X630Y1269D02*
X650Y1269D01*
X676Y1269D02*
X696Y1269D01*
X730Y1269D02*
X750Y1269D01*
X775Y1269D02*
X796Y1269D01*
X830Y1269D02*
X850Y1269D01*
X875Y1269D02*
X896Y1269D01*
X930Y1269D02*
X950Y1269D01*
X975Y1269D02*
X996Y1269D01*
X1030Y1269D02*
X1050Y1269D01*
X1075Y1269D02*
X1096Y1269D01*
X1130Y1269D02*
X1150Y1269D01*
X1175Y1269D02*
X1196Y1269D01*
X1230Y1269D02*
X1250Y1269D01*
X276Y1268D02*
X297Y1268D01*
X329Y1268D02*
X350Y1268D01*
X376Y1268D02*
X397Y1268D01*
X429Y1268D02*
X450Y1268D01*
X476Y1268D02*
X497Y1268D01*
X529Y1268D02*
X550Y1268D01*
X576Y1268D02*
X597Y1268D01*
X629Y1268D02*
X650Y1268D01*
X676Y1268D02*
X697Y1268D01*
X729Y1268D02*
X749Y1268D01*
X776Y1268D02*
X797Y1268D01*
X829Y1268D02*
X849Y1268D01*
X876Y1268D02*
X896Y1268D01*
X929Y1268D02*
X949Y1268D01*
X976Y1268D02*
X996Y1268D01*
X1029Y1268D02*
X1049Y1268D01*
X1076Y1268D02*
X1096Y1268D01*
X1129Y1268D02*
X1149Y1268D01*
X1176Y1268D02*
X1196Y1268D01*
X1229Y1268D02*
X1249Y1268D01*
X276Y1267D02*
X297Y1267D01*
X328Y1267D02*
X349Y1267D01*
X376Y1267D02*
X397Y1267D01*
X428Y1267D02*
X449Y1267D01*
X476Y1267D02*
X497Y1267D01*
X528Y1267D02*
X549Y1267D01*
X576Y1267D02*
X597Y1267D01*
X628Y1267D02*
X649Y1267D01*
X676Y1267D02*
X697Y1267D01*
X728Y1267D02*
X749Y1267D01*
X776Y1267D02*
X797Y1267D01*
X828Y1267D02*
X849Y1267D01*
X876Y1267D02*
X897Y1267D01*
X928Y1267D02*
X949Y1267D01*
X976Y1267D02*
X997Y1267D01*
X1028Y1267D02*
X1049Y1267D01*
X1076Y1267D02*
X1097Y1267D01*
X1128Y1267D02*
X1149Y1267D01*
X1176Y1267D02*
X1197Y1267D01*
X1228Y1267D02*
X1249Y1267D01*
X277Y1266D02*
X299Y1266D01*
X327Y1266D02*
X349Y1266D01*
X377Y1266D02*
X399Y1266D01*
X427Y1266D02*
X449Y1266D01*
X477Y1266D02*
X499Y1266D01*
X527Y1266D02*
X549Y1266D01*
X577Y1266D02*
X598Y1266D01*
X627Y1266D02*
X649Y1266D01*
X677Y1266D02*
X698Y1266D01*
X727Y1266D02*
X749Y1266D01*
X777Y1266D02*
X798Y1266D01*
X827Y1266D02*
X849Y1266D01*
X877Y1266D02*
X898Y1266D01*
X927Y1266D02*
X949Y1266D01*
X977Y1266D02*
X998Y1266D01*
X1027Y1266D02*
X1049Y1266D01*
X1077Y1266D02*
X1098Y1266D01*
X1127Y1266D02*
X1149Y1266D01*
X1177Y1266D02*
X1198Y1266D01*
X1227Y1266D02*
X1249Y1266D01*
X277Y1265D02*
X300Y1265D01*
X326Y1265D02*
X348Y1265D01*
X377Y1265D02*
X400Y1265D01*
X426Y1265D02*
X448Y1265D01*
X477Y1265D02*
X500Y1265D01*
X526Y1265D02*
X548Y1265D01*
X577Y1265D02*
X600Y1265D01*
X626Y1265D02*
X648Y1265D01*
X677Y1265D02*
X700Y1265D01*
X726Y1265D02*
X748Y1265D01*
X777Y1265D02*
X800Y1265D01*
X826Y1265D02*
X848Y1265D01*
X877Y1265D02*
X900Y1265D01*
X926Y1265D02*
X948Y1265D01*
X977Y1265D02*
X1000Y1265D01*
X1026Y1265D02*
X1048Y1265D01*
X1077Y1265D02*
X1100Y1265D01*
X1126Y1265D02*
X1148Y1265D01*
X1177Y1265D02*
X1200Y1265D01*
X1226Y1265D02*
X1248Y1265D01*
X278Y1264D02*
X301Y1264D01*
X324Y1264D02*
X348Y1264D01*
X378Y1264D02*
X401Y1264D01*
X424Y1264D02*
X448Y1264D01*
X478Y1264D02*
X501Y1264D01*
X524Y1264D02*
X548Y1264D01*
X578Y1264D02*
X601Y1264D01*
X624Y1264D02*
X648Y1264D01*
X678Y1264D02*
X701Y1264D01*
X724Y1264D02*
X748Y1264D01*
X778Y1264D02*
X801Y1264D01*
X824Y1264D02*
X848Y1264D01*
X878Y1264D02*
X901Y1264D01*
X924Y1264D02*
X948Y1264D01*
X978Y1264D02*
X1001Y1264D01*
X1024Y1264D02*
X1048Y1264D01*
X1078Y1264D02*
X1101Y1264D01*
X1124Y1264D02*
X1148Y1264D01*
X1178Y1264D02*
X1201Y1264D01*
X1224Y1264D02*
X1248Y1264D01*
X278Y1263D02*
X303Y1263D01*
X322Y1263D02*
X347Y1263D01*
X378Y1263D02*
X403Y1263D01*
X422Y1263D02*
X447Y1263D01*
X478Y1263D02*
X503Y1263D01*
X522Y1263D02*
X547Y1263D01*
X578Y1263D02*
X603Y1263D01*
X622Y1263D02*
X647Y1263D01*
X678Y1263D02*
X703Y1263D01*
X722Y1263D02*
X747Y1263D01*
X778Y1263D02*
X803Y1263D01*
X822Y1263D02*
X847Y1263D01*
X878Y1263D02*
X903Y1263D01*
X922Y1263D02*
X947Y1263D01*
X978Y1263D02*
X1003Y1263D01*
X1022Y1263D02*
X1047Y1263D01*
X1078Y1263D02*
X1103Y1263D01*
X1122Y1263D02*
X1147Y1263D01*
X1178Y1263D02*
X1203Y1263D01*
X1222Y1263D02*
X1247Y1263D01*
X279Y1262D02*
X307Y1262D01*
X319Y1262D02*
X347Y1262D01*
X379Y1262D02*
X407Y1262D01*
X419Y1262D02*
X447Y1262D01*
X479Y1262D02*
X507Y1262D01*
X519Y1262D02*
X547Y1262D01*
X579Y1262D02*
X607Y1262D01*
X619Y1262D02*
X647Y1262D01*
X679Y1262D02*
X707Y1262D01*
X719Y1262D02*
X747Y1262D01*
X779Y1262D02*
X807Y1262D01*
X819Y1262D02*
X846Y1262D01*
X879Y1262D02*
X907Y1262D01*
X919Y1262D02*
X946Y1262D01*
X979Y1262D02*
X1007Y1262D01*
X1019Y1262D02*
X1046Y1262D01*
X1079Y1262D02*
X1107Y1262D01*
X1119Y1262D02*
X1146Y1262D01*
X1179Y1262D02*
X1207Y1262D01*
X1219Y1262D02*
X1246Y1262D01*
X280Y1261D02*
X346Y1261D01*
X380Y1261D02*
X446Y1261D01*
X480Y1261D02*
X546Y1261D01*
X580Y1261D02*
X646Y1261D01*
X680Y1261D02*
X746Y1261D01*
X780Y1261D02*
X846Y1261D01*
X879Y1261D02*
X946Y1261D01*
X979Y1261D02*
X1046Y1261D01*
X1079Y1261D02*
X1146Y1261D01*
X1179Y1261D02*
X1246Y1261D01*
X280Y1260D02*
X345Y1260D01*
X380Y1260D02*
X445Y1260D01*
X480Y1260D02*
X545Y1260D01*
X580Y1260D02*
X645Y1260D01*
X680Y1260D02*
X745Y1260D01*
X780Y1260D02*
X845Y1260D01*
X880Y1260D02*
X945Y1260D01*
X980Y1260D02*
X1045Y1260D01*
X1080Y1260D02*
X1145Y1260D01*
X1180Y1260D02*
X1245Y1260D01*
X281Y1259D02*
X345Y1259D01*
X381Y1259D02*
X445Y1259D01*
X481Y1259D02*
X545Y1259D01*
X581Y1259D02*
X645Y1259D01*
X681Y1259D02*
X745Y1259D01*
X781Y1259D02*
X845Y1259D01*
X881Y1259D02*
X944Y1259D01*
X981Y1259D02*
X1044Y1259D01*
X1081Y1259D02*
X1144Y1259D01*
X1181Y1259D02*
X1244Y1259D01*
X282Y1258D02*
X344Y1258D01*
X382Y1258D02*
X444Y1258D01*
X482Y1258D02*
X544Y1258D01*
X582Y1258D02*
X644Y1258D01*
X682Y1258D02*
X744Y1258D01*
X782Y1258D02*
X844Y1258D01*
X882Y1258D02*
X944Y1258D01*
X982Y1258D02*
X1044Y1258D01*
X1082Y1258D02*
X1144Y1258D01*
X1182Y1258D02*
X1244Y1258D01*
X283Y1257D02*
X343Y1257D01*
X382Y1257D02*
X443Y1257D01*
X482Y1257D02*
X543Y1257D01*
X582Y1257D02*
X643Y1257D01*
X682Y1257D02*
X743Y1257D01*
X782Y1257D02*
X843Y1257D01*
X882Y1257D02*
X943Y1257D01*
X982Y1257D02*
X1043Y1257D01*
X1082Y1257D02*
X1143Y1257D01*
X1182Y1257D02*
X1243Y1257D01*
X283Y1256D02*
X342Y1256D01*
X383Y1256D02*
X442Y1256D01*
X483Y1256D02*
X542Y1256D01*
X583Y1256D02*
X642Y1256D01*
X683Y1256D02*
X742Y1256D01*
X783Y1256D02*
X842Y1256D01*
X883Y1256D02*
X942Y1256D01*
X983Y1256D02*
X1042Y1256D01*
X1083Y1256D02*
X1142Y1256D01*
X1183Y1256D02*
X1242Y1256D01*
X284Y1255D02*
X341Y1255D01*
X384Y1255D02*
X441Y1255D01*
X484Y1255D02*
X541Y1255D01*
X584Y1255D02*
X641Y1255D01*
X684Y1255D02*
X741Y1255D01*
X784Y1255D02*
X841Y1255D01*
X884Y1255D02*
X941Y1255D01*
X984Y1255D02*
X1041Y1255D01*
X1084Y1255D02*
X1141Y1255D01*
X1184Y1255D02*
X1241Y1255D01*
X285Y1254D02*
X340Y1254D01*
X385Y1254D02*
X440Y1254D01*
X485Y1254D02*
X540Y1254D01*
X585Y1254D02*
X640Y1254D01*
X685Y1254D02*
X740Y1254D01*
X785Y1254D02*
X840Y1254D01*
X885Y1254D02*
X940Y1254D01*
X985Y1254D02*
X1040Y1254D01*
X1085Y1254D02*
X1140Y1254D01*
X1185Y1254D02*
X1240Y1254D01*
X286Y1253D02*
X339Y1253D01*
X386Y1253D02*
X439Y1253D01*
X486Y1253D02*
X539Y1253D01*
X586Y1253D02*
X639Y1253D01*
X686Y1253D02*
X739Y1253D01*
X786Y1253D02*
X839Y1253D01*
X886Y1253D02*
X939Y1253D01*
X986Y1253D02*
X1039Y1253D01*
X1086Y1253D02*
X1139Y1253D01*
X1186Y1253D02*
X1239Y1253D01*
X287Y1252D02*
X338Y1252D01*
X387Y1252D02*
X438Y1252D01*
X487Y1252D02*
X538Y1252D01*
X587Y1252D02*
X638Y1252D01*
X687Y1252D02*
X738Y1252D01*
X787Y1252D02*
X838Y1252D01*
X887Y1252D02*
X938Y1252D01*
X987Y1252D02*
X1038Y1252D01*
X1087Y1252D02*
X1138Y1252D01*
X1187Y1252D02*
X1238Y1252D01*
X288Y1251D02*
X337Y1251D01*
X388Y1251D02*
X437Y1251D01*
X488Y1251D02*
X537Y1251D01*
X588Y1251D02*
X637Y1251D01*
X688Y1251D02*
X737Y1251D01*
X788Y1251D02*
X837Y1251D01*
X888Y1251D02*
X937Y1251D01*
X988Y1251D02*
X1037Y1251D01*
X1088Y1251D02*
X1137Y1251D01*
X1188Y1251D02*
X1237Y1251D01*
X290Y1250D02*
X336Y1250D01*
X390Y1250D02*
X436Y1250D01*
X490Y1250D02*
X536Y1250D01*
X590Y1250D02*
X636Y1250D01*
X690Y1250D02*
X736Y1250D01*
X790Y1250D02*
X836Y1250D01*
X890Y1250D02*
X936Y1250D01*
X990Y1250D02*
X1036Y1250D01*
X1089Y1250D02*
X1136Y1250D01*
X1189Y1250D02*
X1236Y1250D01*
X291Y1249D02*
X335Y1249D01*
X391Y1249D02*
X435Y1249D01*
X491Y1249D02*
X535Y1249D01*
X591Y1249D02*
X635Y1249D01*
X691Y1249D02*
X735Y1249D01*
X791Y1249D02*
X834Y1249D01*
X891Y1249D02*
X934Y1249D01*
X991Y1249D02*
X1034Y1249D01*
X1091Y1249D02*
X1134Y1249D01*
X1191Y1249D02*
X1234Y1249D01*
X292Y1248D02*
X333Y1248D01*
X392Y1248D02*
X433Y1248D01*
X492Y1248D02*
X533Y1248D01*
X592Y1248D02*
X633Y1248D01*
X692Y1248D02*
X733Y1248D01*
X792Y1248D02*
X833Y1248D01*
X892Y1248D02*
X933Y1248D01*
X992Y1248D02*
X1033Y1248D01*
X1092Y1248D02*
X1133Y1248D01*
X1192Y1248D02*
X1233Y1248D01*
X294Y1247D02*
X332Y1247D01*
X394Y1247D02*
X432Y1247D01*
X494Y1247D02*
X532Y1247D01*
X594Y1247D02*
X631Y1247D01*
X694Y1247D02*
X731Y1247D01*
X794Y1247D02*
X831Y1247D01*
X894Y1247D02*
X931Y1247D01*
X994Y1247D02*
X1031Y1247D01*
X1094Y1247D02*
X1131Y1247D01*
X1194Y1247D02*
X1231Y1247D01*
X296Y1246D02*
X330Y1246D01*
X396Y1246D02*
X430Y1246D01*
X496Y1246D02*
X530Y1246D01*
X596Y1246D02*
X630Y1246D01*
X696Y1246D02*
X730Y1246D01*
X796Y1246D02*
X830Y1246D01*
X896Y1246D02*
X930Y1246D01*
X996Y1246D02*
X1030Y1246D01*
X1096Y1246D02*
X1130Y1246D01*
X1196Y1246D02*
X1230Y1246D01*
X298Y1245D02*
X328Y1245D01*
X398Y1245D02*
X428Y1245D01*
X498Y1245D02*
X528Y1245D01*
X598Y1245D02*
X628Y1245D01*
X698Y1245D02*
X728Y1245D01*
X798Y1245D02*
X828Y1245D01*
X898Y1245D02*
X928Y1245D01*
X998Y1245D02*
X1028Y1245D01*
X1098Y1245D02*
X1128Y1245D01*
X1198Y1245D02*
X1228Y1245D01*
X300Y1244D02*
X325Y1244D01*
X400Y1244D02*
X425Y1244D01*
X500Y1244D02*
X525Y1244D01*
X600Y1244D02*
X625Y1244D01*
X700Y1244D02*
X725Y1244D01*
X800Y1244D02*
X825Y1244D01*
X900Y1244D02*
X925Y1244D01*
X1000Y1244D02*
X1025Y1244D01*
X1100Y1244D02*
X1125Y1244D01*
X1200Y1244D02*
X1225Y1244D01*
X303Y1243D02*
X323Y1243D01*
X403Y1243D02*
X423Y1243D01*
X503Y1243D02*
X523Y1243D01*
X603Y1243D02*
X623Y1243D01*
X703Y1243D02*
X723Y1243D01*
X803Y1243D02*
X823Y1243D01*
X903Y1243D02*
X922Y1243D01*
X1003Y1243D02*
X1022Y1243D01*
X1103Y1243D02*
X1122Y1243D01*
X1203Y1243D02*
X1222Y1243D01*
X307Y1242D02*
X319Y1242D01*
X407Y1242D02*
X419Y1242D01*
X507Y1242D02*
X518Y1242D01*
X607Y1242D02*
X618Y1242D01*
X707Y1242D02*
X718Y1242D01*
X807Y1242D02*
X818Y1242D01*
X907Y1242D02*
X918Y1242D01*
X1007Y1242D02*
X1018Y1242D01*
X1107Y1242D02*
X1118Y1242D01*
X1207Y1242D02*
X1218Y1242D01*
D02*
G04 End of Copper0*
M02*