; NON-PLATED HOLES START AT T1
; THROUGH (PLATED) HOLES START AT T100
M48
INCH
T100C0.038417
T101C0.030000
T102C0.035000
T103C0.038000
T104C0.038445
%
T100
X018734Y000802
X011734Y000802
X004734Y000802
X005734Y000802
X013734Y000802
X014734Y000802
X015734Y000802
X006734Y000802
X007734Y000802
X016734Y000802
X017734Y000802
X010734Y000802
X008734Y000802
X009734Y000802
T101
X010134Y012802
X011134Y012802
X009134Y012802
X003134Y012802
X012134Y012802
X004134Y012802
X005134Y012802
X006134Y012802
X007134Y012802
X008134Y012802
T102
X014134Y010802
X004134Y005802
X010134Y010802
X008134Y010802
X012134Y003802
X008134Y005802
X004134Y010802
X008134Y003802
T103
X017134Y005802
X003134Y005802
X017134Y004802
X017134Y009802
X017134Y010802
X003134Y004802
X003134Y009802
X003134Y010802
T104
X015734Y019802
X007134Y019802
X008134Y019802
X010134Y019802
X016734Y019802
X017734Y019802
X001133Y019802
X009134Y019802
X002134Y019802
X003134Y019802
X018734Y019802
X011734Y019802
X012734Y019802
X004134Y019802
X005134Y019802
X013734Y019802
X014734Y019802
X006134Y019802
T00
M30
